<svg width="99" height="8" viewBox="0 0 99 8" fill="none" xmlns="http://www.w3.org/2000/svg">
<path d="M0.646446 4.35355C0.451187 4.15829 0.451187 3.84171 0.646446 3.64645L3.82843 0.464466C4.02369 0.269204 4.34027 0.269204 4.53554 0.464466C4.7308 0.659728 4.7308 0.976311 4.53554 1.17157L1.70711 4L4.53554 6.82843C4.7308 7.02369 4.7308 7.34027 4.53554 7.53553C4.34027 7.7308 4.02369 7.7308 3.82843 7.53553L0.646446 4.35355ZM98.1667 4C98.1667 5.47276 96.9728 6.66667 95.5 6.66667C94.0272 6.66667 92.8333 5.47276 92.8333 4C92.8333 2.52724 94.0272 1.33333 95.5 1.33333C96.9728 1.33333 98.1667 2.52724 98.1667 4ZM1 3.5H95.5V4.5H1V3.5Z" fill="black"/>
</svg>
