<svg width="42" height="38" viewBox="0 0 42 38" fill="none" xmlns="http://www.w3.org/2000/svg">
<g clip-path="url(#clip0_223_730)">
<path fill-rule="evenodd" clip-rule="evenodd" d="M0 11.1727H42V37.6355H38.7188V14.113H3.28125V37.6355H0V11.1727Z" fill="#5D35EE"/>
<path fill-rule="evenodd" clip-rule="evenodd" d="M40.3594 19.9936H1.64062V17.0533H40.3594V19.9936Z" fill="#5D35EE"/>
<path fill-rule="evenodd" clip-rule="evenodd" d="M21 0.000686646L42 5.98099V12.643H38.7188V8.13179L21 3.08591L3.28125 8.13179V12.643H0V5.98099L21 0.000686646Z" fill="#5D35EE"/>
<path fill-rule="evenodd" clip-rule="evenodd" d="M6.23438 22.9339H22.6406V37.6355H6.23438V22.9339ZM9.51562 25.8743V34.6952H19.3594V25.8743H9.51562Z" fill="#5D35EE"/>
<path fill-rule="evenodd" clip-rule="evenodd" d="M12.7969 28.8146V24.4041H16.0781V28.8146H12.7969Z" fill="#5D35EE"/>
<path fill-rule="evenodd" clip-rule="evenodd" d="M32.4844 25.8743H21V22.9339H35.7656V37.6355H21V34.6952H32.4844V25.8743Z" fill="#5D35EE"/>
<path fill-rule="evenodd" clip-rule="evenodd" d="M25.9219 28.8146V24.4041H29.2031V28.8146H25.9219Z" fill="#5D35EE"/>
<path fill-rule="evenodd" clip-rule="evenodd" d="M22.6406 8.52641H19.3594V5.58609H22.6406V8.52641Z" fill="#5D35EE"/>
</g>
<defs>
<clipPath id="clip0_223_730">
<rect width="42" height="37.636" fill="white"/>
</clipPath>
</defs>
</svg>
