<svg width="39" height="50" viewBox="0 0 39 50" fill="none" xmlns="http://www.w3.org/2000/svg">
<path fill-rule="evenodd" clip-rule="evenodd" d="M5.46875 44.9653H14.2917L17.5895 50H21.8223C21.7743 49.8042 21.6928 49.6131 21.576 49.4351L13.3 36.7938C13.159 36.5774 13.1688 36.2979 13.3243 36.0938L13.8979 35.3403C14.0122 35.192 14.1872 35.1045 14.3743 35.1021C14.559 35.0997 14.7365 35.1823 14.8556 35.3281L17.8743 39.0687C19.0118 40.476 20.9465 41.3194 22.7306 41.3194C26.284 41.3194 29.1667 38.4368 29.1667 34.8833V25.4333L30.8753 26.2865C33.5538 27.6257 35.2431 30.3601 35.2431 33.3521V50H38.8889V33.3521C38.8889 28.9795 36.4194 24.9813 32.5063 23.0271L29.1667 21.3573V5.46875C29.1667 4.01771 28.5906 2.62743 27.5649 1.60174C26.5392 0.576042 25.149 0 23.6979 0H5.46875C4.01771 0 2.62743 0.576042 1.60174 1.60174C0.576042 2.62743 0 4.01771 0 5.46875V39.4965C0 40.9476 0.576042 42.3378 1.60174 43.3635C2.62743 44.3892 4.01771 44.9653 5.46875 44.9653ZM25.5208 5.46875V34.8833C25.5208 36.4243 24.2715 37.6736 22.7306 37.6736C21.9941 37.6736 21.1799 37.3601 20.7108 36.7767L17.692 33.0385C16.8705 32.0201 15.6285 31.4392 14.3233 31.4563C13.0181 31.4733 11.7906 32.0906 11.0007 33.1309L10.4271 33.8819C9.33333 35.316 9.26285 37.2823 10.2497 38.7917L11.9049 41.3194H5.46875C4.98507 41.3194 4.52083 41.1274 4.18055 40.7847C3.83785 40.4444 3.64583 39.9802 3.64583 39.4965V5.46875C3.64583 4.98507 3.83785 4.52083 4.18055 4.18056C4.52083 3.83785 4.98507 3.64583 5.46875 3.64583H8.35625C8.39787 3.81336 8.44083 3.98491 8.48398 4.15721C8.54163 4.38738 8.59961 4.61892 8.65521 4.8441C8.925 5.92569 9.89722 6.68403 11.0128 6.68403H18.1538C19.2694 6.68403 20.2417 5.92569 20.5115 4.8441C20.567 4.61896 20.625 4.38746 20.6827 4.15733C20.7258 3.98498 20.7688 3.8134 20.8104 3.64583H23.6979C24.1816 3.64583 24.6458 3.83785 24.9861 4.18056C25.3288 4.52083 25.5208 4.98507 25.5208 5.46875Z" fill="#5D35EE"/>
</svg>
