<svg width="42" height="42" viewBox="0 0 42 42" fill="none" xmlns="http://www.w3.org/2000/svg">
<mask id="mask0_223_670" style="mask-type:luminance" maskUnits="userSpaceOnUse" x="0" y="0" width="42" height="42">
<path d="M0 0H42V42H0V0Z" fill="white"/>
</mask>
<g mask="url(#mask0_223_670)">
<path fill-rule="evenodd" clip-rule="evenodd" d="M4.81963 37.0987C4.81963 39.8057 7.04856 42 9.7982 42H32.2017C34.9514 42 37.1803 39.8057 37.1803 37.0987V27.541H33.8612V37.0987C33.8612 38.001 33.1183 38.7325 32.2017 38.7325H9.7982C8.88162 38.7325 8.13867 38.001 8.13867 37.0987V27.541H4.81963V37.0987Z" fill="#5D35EE"/>
<path fill-rule="evenodd" clip-rule="evenodd" d="M-6.10352e-05 28.2295H41.9999L36.3075 15.8361H5.46912L-6.10352e-05 28.2295ZM5.03624 24.9465L7.60784 19.1191H34.2037L36.8802 24.9465H5.03624Z" fill="#5D35EE"/>
<path fill-rule="evenodd" clip-rule="evenodd" d="M39.0287 6.19668L33.7377 17.1253L36.7089 18.5901L42 7.66149L39.0287 6.19668Z" fill="#5D35EE"/>
<path fill-rule="evenodd" clip-rule="evenodd" d="M8.26223 17.1583L3.04333 6.19668L-6.10352e-05 7.62851L5.21884 18.5901L8.26223 17.1583Z" fill="#5D35EE"/>
<path fill-rule="evenodd" clip-rule="evenodd" d="M19.0983 13.7705L30.2951 2.11475L27.7767 1.52588e-05L18.9083 9.23201L14.0387 4.8981L11.7049 7.19041L19.0983 13.7705Z" fill="#5D35EE"/>
</g>
</svg>
