<svg width="42" height="42" viewBox="0 0 42 42" fill="none" xmlns="http://www.w3.org/2000/svg">
<mask id="mask0_223_643" style="mask-type:luminance" maskUnits="userSpaceOnUse" x="0" y="0" width="42" height="42">
<path d="M42 0H0V42H42V0Z" fill="white"/>
<path d="M35.5646 15.6C34.6614 15.6 33.9292 16.3096 33.9292 17.1849V36.0453C33.9292 36.9192 33.1955 37.6302 32.2938 37.6302H29.2406C28.8398 38.1409 28.4088 38.6554 27.9465 39.1725C27.4191 39.7625 26.8948 40.3085 26.4 40.8H32.2938C34.9991 40.8 37.2 38.6671 37.2 36.0453V17.1849C37.2 16.3096 36.4679 15.6 35.5646 15.6Z" fill="white"/>
<path d="M13.0253 39.1724C12.6143 38.6554 12.2313 38.1409 11.875 37.6302H9.16102C8.35945 37.6302 7.70731 36.9192 7.70731 36.0453V17.1849C7.70731 16.3096 7.05649 15.6 6.2536 15.6C5.45072 15.6 4.7999 16.3096 4.7999 17.1849V36.0453C4.7999 38.667 6.7563 40.8 9.16102 40.8H14.3999C13.9601 40.3085 13.4941 39.7625 13.0253 39.1724Z" fill="white"/>
<path d="M18 28.2001C18 26.5433 19.3432 25.2001 21 25.2001C22.6568 25.2001 24 26.5433 24 28.2001C24 29.8569 22.6568 31.2001 21 31.2001C19.3432 31.2001 18 29.8569 18 28.2001Z" fill="white"/>
</mask>
<g mask="url(#mask0_223_643)">
<mask id="mask1_223_643" style="mask-type:luminance" maskUnits="userSpaceOnUse" x="0" y="0" width="42" height="42">
<path d="M0 -3.05176e-05H42V42H0V-3.05176e-05Z" fill="white"/>
</mask>
<g mask="url(#mask1_223_643)">
<path d="M35.5647 15.6C34.6614 15.6 33.9292 16.3096 33.9292 17.1849V36.0453C33.9292 36.9192 33.1956 37.6302 32.2938 37.6302H29.2407C28.8398 38.1409 28.4089 38.6554 27.9465 39.1724C27.4191 39.7625 26.8949 40.3085 26.4001 40.8H32.2938C34.9991 40.8 37.2001 38.667 37.2001 36.0453V17.1849C37.2001 16.3096 36.4679 15.6 35.5647 15.6Z" fill="#5D35EE"/>
<path d="M13.0253 39.1724C12.6143 38.6554 12.2313 38.1409 11.875 37.6302H9.16104C8.35946 37.6302 7.70733 36.9192 7.70733 36.0453V17.1849C7.70733 16.3096 7.0565 15.6 6.25362 15.6C5.45074 15.6 4.79991 16.3096 4.79991 17.1849V36.0453C4.79991 38.667 6.75631 40.8 9.16104 40.8H14.3999C13.9601 40.3085 13.4941 39.7625 13.0253 39.1724Z" fill="#5D35EE"/>
<path fill-rule="evenodd" clip-rule="evenodd" d="M2.14969 21.6001L21 5.47681L39.8503 21.6001L42 19.162L21 1.20007L1.52588e-05 19.162L2.14969 21.6001Z" fill="#5D35EE"/>
<path d="M18 28.2001C18 26.5433 19.3432 25.2001 21 25.2001C22.6568 25.2001 24 26.5433 24 28.2001C24 29.8569 22.6568 31.2001 21 31.2001C19.3432 31.2001 18 29.8569 18 28.2001Z" fill="#5D35EE"/>
<path fill-rule="evenodd" clip-rule="evenodd" d="M22.12 41.1456L20.9999 39.8561L19.8798 41.1456L20.9999 42L22.12 41.1456ZM20.9999 37.6441C20.9639 37.613 20.9272 37.5813 20.8899 37.5489C20.1326 36.8907 19.1276 35.9634 18.1281 34.8823C17.1237 33.7959 16.1568 32.5885 15.4486 31.371C14.7313 30.1378 14.3485 29.0117 14.3485 28.0566V27.5587C14.3485 24.116 17.3265 21.3253 20.9999 21.3253C24.6734 21.3253 27.6514 24.116 27.6514 27.5587V28.0566C27.6514 29.0117 27.2686 30.1377 26.5513 31.371C25.8431 32.5885 24.8762 33.7959 23.8718 34.8823C22.8722 35.9634 21.8673 36.8907 21.1099 37.5489C21.0726 37.5813 21.0359 37.613 20.9999 37.6441ZM29.667 32.9624C30.5295 31.4796 31.1999 29.7877 31.1999 28.0566V27.5587C31.1999 22.2797 26.6334 18 20.9999 18C15.3665 18 10.7999 22.2797 10.7999 27.5587V28.0566C10.7999 29.7877 11.4704 31.4796 12.3328 32.9624C13.2045 34.461 14.344 35.8677 15.4461 37.0597C16.5529 38.2569 17.6544 39.2722 18.4769 39.987C18.8893 40.3454 19.2344 40.6308 19.4789 40.8284C19.6012 40.9273 19.6985 41.0044 19.7667 41.0578C19.8008 41.0845 19.8276 41.1053 19.8466 41.12C19.8561 41.1274 19.8637 41.1332 19.8692 41.1375L19.876 41.1427L19.8791 41.1451C19.8795 41.1453 19.8798 41.1456 20.9999 39.8561C22.12 41.1456 22.1203 41.1453 22.1207 41.1451L22.1238 41.1427L22.1306 41.1375C22.1361 41.1332 22.1437 41.1274 22.1532 41.12C22.1722 41.1053 22.199 41.0845 22.2331 41.0578C22.3012 41.0044 22.3986 40.9273 22.5209 40.8284C22.7654 40.6308 23.1105 40.3454 23.5229 39.987C24.3454 39.2722 25.4469 38.2569 26.5538 37.0597C27.6558 35.8677 28.7954 34.461 29.667 32.9624Z" fill="#5D35EE"/>
</g>
</g>
</svg>
