<svg width="98" height="41" viewBox="0 0 98 41" fill="none" xmlns="http://www.w3.org/2000/svg">
<path d="M61.284 9.73404V16.385H57.837V9.70904L51.987 0.363037H55.823L59.683 6.60204L63.664 0.363037H67.184L61.284 9.73404Z" fill="white"/>
<mask id="mask0_446_111" style="mask-type:luminance" maskUnits="userSpaceOnUse" x="0" y="0" width="95" height="18">
<path d="M95 0H0V17.556H95V0Z" fill="white"/>
</mask>
<g mask="url(#mask0_446_111)">
<path d="M67.352 8.25302C67.352 2.79102 70.314 0.0720215 75.12 0.0720215C80 0.0720215 82.961 2.86302 82.961 8.15502C82.961 13.593 79.854 16.676 75.047 16.676C70.41 16.676 67.347 13.787 67.347 8.25202M79.412 8.20302C79.412 4.61102 77.834 2.91102 75.14 2.91102C72.446 2.91102 70.892 4.61102 70.892 8.25202C70.892 11.966 72.492 13.811 75.092 13.811C77.762 13.811 79.413 11.869 79.413 8.20402" fill="white"/>
<path d="M95 13.594V16.385H85.508V0.364014H88.952V13.594H95Z" fill="white"/>
<path d="M20.61 9.79998C20.6177 10.2407 20.5374 10.6786 20.3741 11.0881C20.2107 11.4975 19.9674 11.8703 19.6584 12.1847C19.3494 12.4991 18.9809 12.7489 18.5743 12.9193C18.1678 13.0898 17.7313 13.1776 17.2905 13.1776C16.8497 13.1776 16.4132 13.0898 16.0067 12.9193C15.6002 12.7489 15.2316 12.4991 14.9226 12.1847C14.6136 11.8703 14.3703 11.4975 14.2069 11.0881C14.0436 10.6786 13.9634 10.2407 13.971 9.79998V0.250977H10.401V9.79998C10.401 11.6273 11.1269 13.3798 12.419 14.6719C13.7112 15.9641 15.4637 16.69 17.291 16.69C19.1183 16.69 20.8708 15.9641 22.163 14.6719C23.4551 13.3798 24.181 11.6273 24.181 9.79998V0.250977H20.61V9.79998Z" fill="white"/>
<path d="M6.826 3.81395V10.331C6.82581 11.9289 6.32295 13.4863 5.38863 14.7826C4.4543 16.0789 3.13587 17.0484 1.62 17.554L0.489 14.164C1.29395 13.8949 1.99403 13.3797 2.49035 12.6912C2.98667 12.0027 3.25415 11.1757 3.255 10.327V3.10495H0V0.251953H6.826V3.81395Z" fill="white"/>
<path d="M49.248 3.10498V0.250977H45.99H42.423V10.33C42.4231 11.9282 42.9258 13.4858 43.8599 14.7826C44.794 16.0794 46.1122 17.0496 47.628 17.556L48.759 14.168C47.9537 13.8994 47.2533 13.3844 46.7569 12.6958C46.2605 12.0072 45.9933 11.1799 45.993 10.331V3.10498H49.248Z" fill="white"/>
<path d="M30.838 4.4C30.838 3.354 31.859 2.868 33.051 2.868C33.754 2.79082 34.459 2.99595 35.0108 3.4383C35.5627 3.88065 35.9163 4.52402 35.994 5.227L39.155 4.4C38.815 1.02 36.018 0 33.464 0C30.351 0 27.287 1.507 27.287 4.888C27.287 10.603 36.025 9.395 36.025 12.337C36.025 13.286 35.101 13.845 33.666 13.845C31.745 13.845 30.48 12.969 30.189 11.51L26.833 12.386C27.295 15.207 29.654 16.686 33.18 16.686C37.047 16.686 39.58 14.716 39.58 11.749C39.58 6.277 30.842 7.413 30.842 4.397" fill="white"/>
</g>
<path d="M88.2396 32.6649L88.2557 32.8916C88.2708 32.9739 88.2957 33.0629 88.3302 33.1587C88.3648 33.2544 88.4076 33.3486 88.4587 33.4413C88.5638 33.6432 88.6381 33.8167 88.6818 33.9618L88.6908 34.0112C88.6999 34.0606 88.6992 34.1032 88.6888 34.1392C88.665 34.1946 88.6478 34.2403 88.6374 34.2762C88.63 34.3286 88.6129 34.3743 88.586 34.4132C88.5262 34.4582 88.4881 34.4822 88.4716 34.4853C88.4521 34.4718 88.4259 34.4681 88.393 34.4742C88.3436 34.4832 88.3055 34.5072 88.2786 34.5462C88.2188 34.5912 88.1725 34.6167 88.1396 34.6227C88.1231 34.6258 88.1051 34.6206 88.0856 34.6071C88.0692 34.6101 88.0527 34.6132 88.0363 34.6162C88.0168 34.6027 88.0071 34.596 88.0071 34.596C87.9876 34.5826 87.9681 34.5691 87.9486 34.5557C87.9322 34.5587 87.9127 34.5453 87.8902 34.5154C87.8287 34.4586 87.7703 34.4183 87.7149 34.3944C87.643 34.3736 87.5711 34.3528 87.4992 34.3319C87.4603 34.305 87.3884 34.2842 87.2836 34.2694C87.1174 34.1978 87.0072 34.1075 86.9532 33.9983C86.9021 33.9056 86.869 33.8181 86.8539 33.7358C86.8449 33.6864 86.8261 33.6303 86.7975 33.5675C86.772 33.5211 86.7547 33.4733 86.7457 33.4239C86.7396 33.391 86.7388 33.3401 86.7432 33.2712C86.7506 33.2189 86.7513 33.1762 86.7452 33.1433C86.7436 33.0415 86.7419 32.9397 86.7402 32.838C86.7386 32.7362 86.7287 32.6359 86.7106 32.5372C86.7314 32.4653 86.7267 32.3471 86.6965 32.1825L86.5787 31.5406C86.5666 31.4747 86.5546 31.4089 86.5425 31.3431C86.5304 31.2772 86.5266 31.2099 86.5309 31.141C86.5219 31.0917 86.539 31.046 86.5823 31.004C86.6227 30.9456 86.6398 30.8999 86.6338 30.867C86.6425 30.7293 86.6446 30.6013 86.6399 30.4831C86.6382 30.3813 86.6448 30.278 86.6596 30.1732C86.67 30.1373 86.6676 30.0782 86.6525 29.9959C86.6435 29.9465 86.6292 29.9151 86.6097 29.9016C86.5872 29.8717 86.5715 29.8321 86.5624 29.7827C86.5503 29.7169 86.5495 29.666 86.5599 29.6301C86.6029 29.401 86.6109 29.2124 86.5837 29.0643C86.5686 28.982 86.5677 28.9311 86.5812 28.9116C86.6632 28.7094 86.6973 28.5245 86.6836 28.3569C86.6668 28.1729 86.6418 27.9903 86.6086 27.8093C86.6204 27.688 86.6254 27.5765 86.6238 27.4747C86.6221 27.3729 86.6189 27.2629 86.6142 27.1447C86.6082 27.1118 86.6104 27.0774 86.6208 27.0414C86.6117 26.9921 86.6027 26.9427 86.5936 26.8933L86.5257 26.523C86.4713 26.2267 86.4678 25.9296 86.5152 25.6317C86.5284 25.4251 86.5737 25.2552 86.6514 25.1219C86.6618 25.0859 86.6625 25.0433 86.6534 24.9939C86.6668 24.9744 86.669 24.94 86.66 24.8906L86.6509 24.8412C86.6284 24.8113 86.6111 24.7635 86.599 24.6976C86.5719 24.5495 86.6053 24.4073 86.6994 24.2709C86.7262 24.232 86.7336 24.1796 86.7216 24.1137C86.6944 23.9656 86.7038 23.7852 86.7499 23.5726C86.76 23.3496 86.7829 23.1497 86.8185 22.9731C86.8124 22.9402 86.8012 22.9252 86.7847 22.9282C86.7817 22.9118 86.7772 22.8871 86.7711 22.8542C86.7816 22.8182 86.7822 22.7756 86.7732 22.7262C86.7806 22.6738 86.7962 22.6199 86.8201 22.5645C86.8305 22.5285 86.8312 22.4859 86.8221 22.4365C86.807 22.3542 86.8084 22.2689 86.8262 22.1806C86.844 22.0922 86.8618 22.0039 86.8796 21.9156C86.9273 21.8047 86.9549 21.7231 86.9623 21.6707C86.9892 21.6318 87.0115 21.5681 87.0293 21.4798C87.0052 21.3481 87.0005 21.2299 87.0153 21.1251C87.0435 21.0008 87.0635 20.878 87.0753 20.7568L87.0663 20.7074C87.0632 20.691 87.0684 20.673 87.0819 20.6535C87.1222 20.5951 87.1333 20.5165 87.1152 20.4177C87.1091 20.3848 87.1232 20.3227 87.1575 20.2313C87.1707 20.0248 87.192 19.8167 87.2216 19.6071C87.2512 19.3975 87.3137 19.1819 87.4091 18.9602C87.4196 18.9243 87.43 18.8883 87.4404 18.8524C87.4508 18.8165 87.453 18.782 87.447 18.7491C87.4843 18.6742 87.5066 18.6106 87.514 18.5582C87.5348 18.4863 87.5639 18.4129 87.6012 18.338C87.6012 18.338 87.6116 18.3021 87.6325 18.2302C87.6846 18.0505 87.7936 17.9029 87.9595 17.7874C87.973 17.7679 88.0044 17.7537 88.0537 17.7446L88.1278 17.731L88.6891 17.7301C88.7549 17.718 88.7991 17.7269 88.8216 17.7568C88.88 17.7971 88.9384 17.8374 88.9969 17.8778C89.0553 17.9181 89.107 17.9681 89.152 18.0279C89.23 18.0817 89.2795 18.1662 89.3006 18.2814L89.2986 18.4093L89.2744 18.6945C89.2327 18.8383 89.1992 18.9805 89.174 19.1212C89.1458 19.2455 89.1191 19.378 89.0938 19.5187L89.063 19.9072C89.0452 19.9955 89.0341 20.0741 89.0298 20.143C89.0418 20.2088 89.0375 20.2777 89.0166 20.3495C88.9974 20.5232 88.9648 20.7163 88.9188 20.9289C88.9053 20.9484 88.9001 20.9664 88.9032 20.9828L88.9077 21.0075C88.9063 21.0928 88.8952 21.1714 88.8744 21.2433C88.87 21.3121 88.8574 21.3825 88.8366 21.4544C88.8338 21.625 88.8236 21.7545 88.8058 21.8428C88.8148 21.8922 88.812 21.9693 88.7972 22.0741L88.8108 22.1481C88.8259 22.2304 88.8709 22.2902 88.9457 22.3275L88.9951 22.3185C89.0324 22.2436 89.063 22.1784 89.0869 22.123C89.1272 22.0646 89.1577 21.9994 89.1786 21.9275C89.1769 21.8258 89.206 21.7524 89.2658 21.7074L89.4155 21.2716C89.523 21.1158 89.6162 20.9285 89.6952 20.7099L89.8988 20.2897C89.9391 20.2313 89.9712 20.1744 89.9951 20.1189C90.0324 20.044 90.0614 19.9707 90.0823 19.8988C90.133 19.8044 90.1853 19.7183 90.239 19.6404C90.3062 19.543 90.3569 19.4486 90.3912 19.3572C90.4151 19.3018 90.4703 19.2321 90.557 19.1482L91.0478 18.6243C91.0717 18.5689 91.1068 18.5284 91.1532 18.5029C91.216 18.4743 91.2773 18.4376 91.3371 18.3926C91.4597 18.319 91.5643 18.2403 91.651 18.1563C91.7497 18.1382 91.8372 18.1051 91.9135 18.0571C91.9898 18.0091 92.0757 17.9678 92.1715 17.9332C92.2477 17.8852 92.3188 17.8551 92.3846 17.8431C92.4474 17.8145 92.52 17.7927 92.6023 17.7776L93.3096 17.8775C93.4638 17.8832 93.5911 17.9279 93.6915 18.0116C93.7305 18.0384 93.7829 18.0458 93.8487 18.0338C93.8652 18.0307 93.8944 18.0509 93.9364 18.0942C93.9904 18.2034 94.0594 18.3013 94.1434 18.388C94.2408 18.4552 94.3165 18.5434 94.3706 18.6525C94.4216 18.7453 94.4531 18.8245 94.4652 18.8904C94.4773 18.9562 94.4894 19.022 94.5015 19.0879C94.5136 19.1537 94.5421 19.2165 94.5871 19.2763L94.6727 19.4648L94.6979 19.7409C94.7099 19.8067 94.7272 19.8546 94.7497 19.8845L94.7633 19.9585C94.7485 20.0633 94.7426 20.1239 94.7456 20.1404C94.7698 20.2721 94.7745 20.3903 94.7597 20.4951C94.7614 20.5969 94.7743 20.7136 94.7984 20.8453C94.791 20.8977 94.7934 20.9568 94.8055 21.0226C94.8145 21.072 94.8071 21.1244 94.7833 21.1798C94.7564 21.2188 94.749 21.2712 94.7611 21.337C94.7731 21.4028 94.777 21.4702 94.7726 21.539C94.7847 21.6049 94.7818 21.6819 94.764 21.7703C94.7882 21.902 94.7861 22.0299 94.7579 22.1542C94.7297 22.2785 94.7112 22.4095 94.7024 22.5472C94.6846 22.6355 94.6765 22.7306 94.6782 22.8323C94.6798 22.9341 94.6635 23.0307 94.6293 23.122C94.6249 23.1909 94.6108 23.253 94.5869 23.3084C94.5795 23.3608 94.5654 23.423 94.5446 23.4948L94.5269 23.6767C94.5286 23.7785 94.5055 23.8848 94.4578 23.9956C94.4235 24.087 94.4072 24.1835 94.4089 24.2853C94.4119 24.3018 94.4067 24.3197 94.3933 24.3392C94.3933 24.3392 94.3948 24.3475 94.3978 24.3639C94.3575 24.4223 94.3419 24.4763 94.3509 24.5256C94.3331 24.614 94.3138 24.6941 94.2929 24.7659C94.2855 24.8183 94.2617 24.8738 94.2214 24.9322L94.1185 25.2063C94.0456 25.4578 93.9629 25.7027 93.8705 25.9408C93.7781 26.1789 93.6595 26.4133 93.5147 26.6441C93.4744 26.7025 93.4356 26.7692 93.3983 26.8441C93.3744 26.8995 93.3341 26.9579 93.2773 27.0194L93.2259 27.1564C93.1991 27.1954 93.1707 27.2261 93.1408 27.2486C93.1109 27.2711 93.081 27.2936 93.0511 27.3161C92.9584 27.3671 92.8918 27.4219 92.8515 27.4803C92.8247 27.5193 92.7963 27.55 92.7664 27.5725C92.7499 27.5755 92.735 27.5868 92.7215 27.6062C92.6886 27.6123 92.652 27.6445 92.6117 27.703C92.5865 27.8437 92.4699 27.9501 92.262 28.0223C92.2351 28.0613 92.1985 28.0935 92.1521 28.119C92.1222 28.1415 92.0938 28.1723 92.067 28.2112C92.0401 28.2502 92.0117 28.2809 91.9818 28.3034C91.9489 28.3095 91.919 28.332 91.8921 28.3709C91.7665 28.428 91.6633 28.515 91.5827 28.6318C91.49 28.6829 91.4354 28.7099 91.4189 28.7129C91.3726 28.7384 91.3277 28.7722 91.2844 28.8142C91.2545 28.8367 91.2149 28.8525 91.1655 28.8615C91.0563 28.9156 90.9883 28.9621 90.9614 29.001C90.9181 29.043 90.865 29.0783 90.8022 29.1068C90.7364 29.1189 90.6915 29.1526 90.6677 29.2081C90.6512 29.2111 90.6445 29.2208 90.6475 29.2373C90.6475 29.2373 90.6393 29.2388 90.6228 29.2418L90.5487 29.2554C90.4829 29.2675 90.4268 29.2863 90.3805 29.3118C90.3311 29.3209 90.2735 29.3314 90.2076 29.3435L89.9608 29.3888C89.856 29.374 89.7789 29.3711 89.7295 29.3802C89.6966 29.3862 89.6734 29.399 89.66 29.4185C89.66 29.4185 89.6435 29.4215 89.6106 29.4275C89.5612 29.4366 89.5118 29.4457 89.4625 29.4547C89.4101 29.4473 89.3592 29.4482 89.3098 29.4572L89.2357 29.4708C89.1535 29.4859 89.024 29.4756 88.8473 29.44L88.7103 29.3886C88.5635 29.3305 88.416 29.315 88.2679 29.3422C88.2844 29.3392 88.2627 29.3601 88.2029 29.4051L88.2074 29.4298L88.1474 29.7981C88.134 29.8176 88.1288 29.8356 88.1318 29.852C88.1378 29.8849 88.1671 29.9051 88.2195 29.9125C88.1462 29.977 88.1059 30.0354 88.0985 30.0878C88.0941 30.1567 88.098 30.224 88.1101 30.2898L88.1237 30.3639C88.0984 30.5046 88.0949 30.6244 88.113 30.7231C88.1342 30.8383 88.1373 30.9483 88.1225 31.0531L88.1452 31.1766C88.1573 31.2424 88.1566 31.2851 88.1431 31.3046C88.1462 31.321 88.141 31.339 88.1275 31.3585C88.1305 31.3749 88.1351 31.3996 88.1411 31.4325C88.1428 31.5343 88.1444 31.6361 88.1461 31.7378C88.1672 31.8531 88.1719 31.9713 88.1601 32.0925C88.1467 32.112 88.146 32.1547 88.1581 32.2205L88.2396 32.6649ZM92.7923 20.065L92.6005 19.4367L92.5914 19.3873C92.5854 19.3544 92.5599 19.3081 92.5149 19.2483C92.4954 19.2348 92.461 19.2326 92.4116 19.2417L92.3914 19.2709C92.2779 19.3938 92.1793 19.5055 92.0956 19.6059C92.0089 19.6899 91.935 19.797 91.8739 19.9273L91.8426 20.0351C91.6992 20.1805 91.6149 20.3236 91.5896 20.4643C91.5194 20.5453 91.4754 20.6299 91.4576 20.7182C91.4367 20.7901 91.3927 20.8747 91.3255 20.9721C91.2614 21.086 91.2084 21.2148 91.1668 21.3586C91.1221 21.4858 91.0676 21.6064 91.0035 21.7203C90.9857 21.8086 90.9581 21.8902 90.9208 21.9651C90.8835 22.04 90.8544 22.1134 90.8336 22.1853L90.6637 22.6503C90.5562 22.8061 90.4899 22.9544 90.4646 23.0951C90.4707 23.128 90.47 23.1707 90.4626 23.2231C90.4552 23.2755 90.4463 23.3197 90.4359 23.3556C90.3465 23.6102 90.2571 23.8648 90.1677 24.1193C90.0783 24.3739 89.9889 24.6285 89.8996 24.8831C89.8149 25.2559 89.6695 25.6228 89.4636 25.9839C89.4293 26.0752 89.3868 26.1681 89.336 26.2625C89.2988 26.3374 89.2712 26.419 89.2534 26.5073C89.2191 26.5987 89.1946 26.6967 89.1798 26.8015C89.1529 26.8405 89.1275 26.8877 89.1037 26.9431C89.0963 26.9955 89.0791 27.0412 89.0523 27.0801L88.9404 27.3048L88.8935 27.4665C88.8129 27.5834 88.7629 27.7287 88.7438 27.9023C88.7021 28.0461 88.6342 28.1861 88.5402 28.3225C88.5432 28.3389 88.5313 28.3666 88.5044 28.4056C88.4506 28.4835 88.4298 28.5554 88.4419 28.6212C88.4539 28.6871 88.4892 28.7401 88.5476 28.7805C88.6195 28.8013 88.6719 28.8087 88.7048 28.8027C88.7377 28.7966 88.7692 28.7823 88.7991 28.7598C88.8454 28.7343 88.8933 28.717 88.9426 28.708C89.0085 28.6959 89.0743 28.6838 89.1402 28.6717C89.206 28.6597 89.2703 28.6393 89.3331 28.6108L89.4566 28.5881C89.5224 28.5761 89.5919 28.5378 89.6652 28.4733C89.725 28.4283 89.7631 28.4043 89.7796 28.4013C89.8454 28.3892 89.8835 28.3652 89.8939 28.3293C89.9685 28.1795 90.0866 28.0812 90.2482 28.0346C90.3634 28.0134 90.4546 27.9542 90.5218 27.8568C90.6024 27.7399 90.6726 27.659 90.7324 27.614L90.8423 27.5173C90.8796 27.4424 90.9184 27.3757 90.9587 27.3173C91.0155 27.2558 91.0722 27.1943 91.129 27.1329L91.4898 26.7349C91.5137 26.6795 91.5473 26.6308 91.5906 26.5888C91.6339 26.5469 91.6675 26.4982 91.6914 26.4427C91.8003 26.2016 91.9256 25.9574 92.0674 25.7102L92.1949 25.4316L92.3179 25.1284C92.3387 25.0565 92.3611 24.9928 92.3849 24.9374C92.4222 24.8625 92.4513 24.7891 92.4721 24.7173C92.5108 24.5571 92.5494 24.3969 92.5881 24.2366C92.6402 24.057 92.6758 23.8803 92.695 23.7066C92.7262 23.5988 92.7493 23.4925 92.7641 23.3877C92.7758 23.2665 92.7906 23.1617 92.8084 23.0733C92.8353 23.0344 92.8473 23.0067 92.8442 22.9902C92.8382 22.9573 92.8404 22.9229 92.8508 22.8869C92.8115 22.673 92.8201 22.4417 92.8766 22.1932C92.8914 22.0884 92.898 21.9851 92.8963 21.8833C92.8916 21.7651 92.8885 21.6551 92.8868 21.5533C92.8895 21.3827 92.8855 21.2218 92.8748 21.0707C92.8775 20.9 92.8638 20.7324 92.8336 20.5678L92.8064 20.4197L92.7923 20.065Z" fill="#5D35EE"/>
<path d="M86.2855 25.036L85.767 25.1311C85.7176 25.1402 85.6563 25.1769 85.5831 25.2414C85.5099 25.3059 85.4321 25.3457 85.3498 25.3608C85.3139 25.3503 85.2727 25.3579 85.2264 25.3834C85.177 25.3925 85.1328 25.3836 85.0939 25.3567C85.0774 25.3597 85.0609 25.3627 85.0445 25.3658C85.025 25.3523 85.007 25.3471 84.9906 25.3501L84.9165 25.3637C84.8403 25.4117 84.782 25.465 84.7417 25.5234L84.7779 25.7209L84.8574 26.2933C84.8755 26.392 84.8802 26.5102 84.8714 26.648C84.8597 26.7692 84.8509 26.9069 84.8452 27.0611C84.8183 27.1 84.8027 27.154 84.7983 27.2228C84.7909 27.2752 84.7618 27.3486 84.7111 27.443L84.7383 27.5911C84.7473 27.6405 84.7317 27.6944 84.6914 27.7528L84.6601 27.8606C84.6484 27.9819 84.6305 28.0702 84.6067 28.1256C84.5993 28.178 84.5754 28.2334 84.5351 28.2919C84.5381 28.3083 84.5329 28.3263 84.5195 28.3458C84.5195 28.3458 84.521 28.354 84.524 28.3705L84.5285 28.3952C84.5406 28.461 84.5317 28.5052 84.5018 28.5277C84.4393 28.7433 84.3634 28.9784 84.274 29.233L84.1218 29.5161C84.1114 29.552 84.0658 29.6285 83.9852 29.7453L83.9696 29.7992C83.8171 29.8953 83.6946 30.0624 83.6022 30.3005C83.5021 30.4039 83.4005 30.4991 83.2973 30.5861C83.2107 30.67 83.1045 30.7406 82.9789 30.7976C82.8697 30.8517 82.7935 30.8997 82.7501 30.9417C82.7232 30.9807 82.6784 31.0144 82.6156 31.0429C82.5558 31.0879 82.5012 31.115 82.4518 31.124C82.4189 31.1301 82.3927 31.1264 82.3732 31.1129C82.3732 31.1129 82.365 31.1144 82.3485 31.1175L82.0432 31.1225C81.9774 31.1345 81.9033 31.1481 81.821 31.1632C81.7387 31.1783 81.6617 31.1755 81.5898 31.1546L81.1474 31.1082C81.1115 31.0978 81.0853 31.0941 81.0688 31.0971C81.0524 31.1001 81.0247 31.0882 80.9857 31.0613C80.9437 31.018 80.8965 30.9926 80.8441 30.9852C80.7917 30.9778 80.7625 30.9577 80.7565 30.9247C80.6816 30.8874 80.6037 30.8337 80.5227 30.7635C80.4583 30.6902 80.3953 30.6252 80.3338 30.5685C80.1256 30.4536 79.972 30.3116 79.8729 30.1426C79.8504 30.1128 79.8361 30.0813 79.8301 30.0484C79.8375 29.996 79.8202 29.9482 79.7782 29.9048C79.7077 29.7987 79.6439 29.6828 79.5868 29.5572C79.5432 29.412 79.4928 29.2767 79.4358 29.151L79.3884 29.0321C79.4153 28.9932 79.4151 28.8996 79.388 28.7515C79.3655 28.7216 79.3467 28.6655 79.3316 28.5832L79.2953 28.3857C79.2863 28.3363 79.2772 28.287 79.2681 28.2376C79.2725 28.1687 79.2717 28.1178 79.2656 28.0849L79.2385 27.9368L79.2269 27.7348C79.2313 27.6659 79.2274 27.5986 79.2154 27.5327C79.2033 27.4669 79.2077 27.398 79.2285 27.3262L79.2194 27.2768L79.2095 26.6661L79.2896 26.2686C79.2806 26.2193 79.2828 26.1848 79.2962 26.1654C79.3096 26.1459 79.3133 26.1197 79.3073 26.0868C79.3191 25.9655 79.3339 25.8607 79.3517 25.7724C79.3665 25.6676 79.3895 25.5613 79.4208 25.4535C79.4147 25.4206 79.4319 25.3749 79.4722 25.3164L79.8916 23.7083C79.9588 23.6109 80.0081 23.5083 80.0393 23.4005C80.084 23.2732 80.1399 23.1609 80.2071 23.0635C80.237 23.041 80.2505 23.0215 80.2475 23.005C80.2579 22.9691 80.2765 22.9316 80.3034 22.8927L80.5181 22.3939C80.5719 22.316 80.604 22.2591 80.6144 22.2232C80.6382 22.1677 80.6755 22.0928 80.7263 21.9985C80.7367 21.9625 80.7374 21.9199 80.7283 21.8705C80.7461 21.7822 80.7879 21.7319 80.8538 21.7199C80.8867 21.7138 80.9084 21.6928 80.9188 21.6569L80.9702 21.5199C80.9971 21.4809 81.0434 21.4554 81.1093 21.4433L81.5043 21.3708C81.5177 21.3514 81.5327 21.3401 81.5491 21.3371C81.5656 21.3341 81.5835 21.3393 81.603 21.3527C81.6195 21.3497 81.6442 21.3452 81.6771 21.3391C81.6966 21.3526 81.7228 21.3563 81.7557 21.3502C81.7691 21.3307 81.8005 21.3165 81.8499 21.3074C81.9157 21.2953 81.9666 21.2945 82.0026 21.3049L82.0766 21.2913C82.1425 21.2792 82.1979 21.3031 82.2429 21.3629L82.3149 21.4773L82.324 21.5266C82.33 21.5596 82.3345 21.5843 82.3376 21.6007C82.357 21.6142 82.3698 21.6373 82.3758 21.6702L82.3804 21.6949C82.3864 21.7279 82.3872 21.7787 82.3829 21.8476C82.3755 21.9 82.3748 21.9426 82.3808 21.9756C82.2868 22.1119 82.2466 22.2639 82.2603 22.4315C82.2365 22.4869 82.2111 22.5341 82.1842 22.5731C82.1738 22.609 82.1731 22.6517 82.1822 22.701L82.1867 22.7257L82.2114 22.7212C82.2443 22.7152 82.2608 22.7121 82.2608 22.7121C82.2742 22.6927 82.2892 22.6814 82.3056 22.6784C82.3191 22.6589 82.3243 22.6409 82.3213 22.6245C82.3347 22.605 82.3579 22.5922 82.3908 22.5862C82.4073 22.5832 82.4335 22.5869 82.4694 22.5973C82.5443 22.6346 82.6311 22.6442 82.7299 22.6261L82.8533 22.6034C82.8923 22.6303 82.9529 22.6362 83.0352 22.6211C83.101 22.609 83.1556 22.582 83.1989 22.54C83.2154 22.537 83.2334 22.5422 83.2528 22.5556L83.4191 22.6272C83.6646 22.6672 83.8512 22.8031 83.9788 23.0349C84.0177 23.0618 84.0417 23.0999 84.0508 23.1493C84.0733 23.1792 84.1108 23.1978 84.1632 23.2052C84.1662 23.2217 84.1722 23.2546 84.1813 23.304C84.2038 23.3339 84.2345 23.3622 84.2735 23.3891C84.26 23.4086 84.2533 23.4183 84.2533 23.4183C84.3013 23.4946 84.3329 23.5739 84.348 23.6562C84.3601 23.722 84.3968 23.7833 84.4583 23.8401L84.4764 23.9388C84.4824 23.9717 84.4952 23.9949 84.5147 24.0084L84.5328 24.1071C84.5553 24.137 84.5793 24.1751 84.6048 24.2215C84.6304 24.2678 84.6843 24.2835 84.7666 24.2684C84.8653 24.2503 84.9244 24.2479 84.9439 24.2614C84.9798 24.2718 85.0106 24.3002 85.0361 24.3465C85.0781 24.3898 85.132 24.4055 85.1978 24.3934C85.4118 24.3541 85.5906 24.3553 85.7344 24.397L85.8825 24.3698C85.9453 24.3413 86.0179 24.3195 86.1002 24.3044C86.1495 24.2953 86.1989 24.2863 86.2483 24.2772C86.3141 24.2651 86.362 24.2478 86.3919 24.2253L86.5446 24.2228L86.7914 24.1775C86.8244 24.1715 86.8445 24.1423 86.8519 24.0899C86.8728 24.018 86.8914 23.9805 86.9079 23.9775L87.0449 24.0289C87.0778 24.0229 87.0988 24.0446 87.1079 24.0939C87.1139 24.1269 87.1184 24.1516 87.1214 24.168C87.1409 24.1814 87.1537 24.2046 87.1597 24.2375L87.1935 24.2824L87.1108 24.5272C87.1168 24.5602 87.1049 24.5879 87.075 24.6104C87.0451 24.6329 87.0235 24.6538 87.01 24.6733C86.9996 24.7093 86.9532 24.7348 86.8709 24.7499C86.874 24.7663 86.862 24.7941 86.8352 24.833L86.815 24.8622C86.7821 24.8683 86.7492 24.8743 86.7163 24.8804C86.6968 24.8669 86.6788 24.8617 86.6623 24.8647C86.613 24.8738 86.5584 24.9008 86.4986 24.9458C86.4388 24.9908 86.3677 25.0209 86.2855 25.036ZM80.8174 28.3361L80.9216 28.9039C80.9142 28.9563 80.9211 29.0401 80.9422 29.1553C80.9633 29.2705 81.0016 29.3401 81.057 29.3639L81.0797 29.4874C81.1112 29.5667 81.151 29.6444 81.1991 29.7207C81.2471 29.7969 81.2921 29.8567 81.334 29.9001C81.3596 29.9464 81.397 29.9651 81.4464 29.956C81.5122 29.9439 81.5519 29.9281 81.5653 29.9087C81.6086 29.8667 81.655 29.8412 81.7044 29.8321C81.7537 29.823 81.7919 29.799 81.8187 29.7601C81.8755 29.6986 81.9241 29.6387 81.9644 29.5802C82.0047 29.5218 82.063 29.4686 82.1392 29.4205C82.193 29.3426 82.2452 29.2565 82.296 29.1621C82.3601 29.0483 82.4228 28.9262 82.484 28.7959L82.7415 28.3913L82.8287 28.1712L83.0968 27.4074C83.1536 27.346 83.1812 27.2644 83.1795 27.1626C83.1748 27.0443 83.2046 26.9283 83.2688 26.8145C83.2701 26.7291 83.2782 26.6341 83.293 26.5293C83.3078 26.4245 83.3046 26.3145 83.2835 26.1993C83.3103 26.1603 83.3162 26.0997 83.3011 26.0174C83.286 25.9351 83.2904 25.8663 83.3143 25.8108L83.2916 25.6874C83.2856 25.6545 83.278 25.6133 83.269 25.564C83.2599 25.5146 83.2688 25.4704 83.2957 25.4315L83.2277 25.0611C83.2277 25.0611 83.2022 25.0148 83.1512 24.9221C83.1287 24.8922 83.0949 24.8473 83.0499 24.7875C83.0049 24.7277 82.9465 24.6874 82.8746 24.6666C82.8027 24.6457 82.7361 24.6069 82.6746 24.5502C82.6266 24.4739 82.5636 24.4089 82.4857 24.3551C82.3779 24.3239 82.2909 24.2208 82.2248 24.0458C82.2097 23.9635 82.1662 23.9119 82.0943 23.8911L82.0067 23.8306L82.0178 23.752C82.0087 23.7026 81.9795 23.6825 81.9301 23.6915C81.8643 23.7036 81.8344 23.7261 81.8404 23.759L81.7553 23.8512L81.6681 24.0714L81.344 24.9475L81.3485 24.9721L81.2905 25.2125L81.1947 25.6639L81.2083 25.7379C81.1787 25.9475 81.1147 26.1549 81.0162 26.3601C81.0192 26.3766 81.0223 26.393 81.0253 26.4095C81.0448 26.4229 81.056 26.4379 81.059 26.4543C81.0621 26.4708 81.0553 26.4805 81.0389 26.4836C81.0389 26.4836 81.0404 26.4918 81.0434 26.5083L81.0479 26.5329L81.0212 26.6654C81.0138 26.7178 80.9967 26.7635 80.9698 26.8025C80.9594 26.8384 80.9587 26.8811 80.9678 26.9304L80.9768 26.9798C80.9499 27.0188 80.941 27.0629 80.9501 27.1123L80.9728 27.2358C80.9355 27.3107 80.9049 27.3758 80.881 27.4312C80.8736 27.4836 80.8738 27.5772 80.8815 27.7119L80.8905 27.7612C80.8637 27.8002 80.848 27.8541 80.8437 27.923C80.8527 27.9723 80.8468 28.033 80.826 28.1048C80.829 28.1213 80.832 28.1378 80.8351 28.1542C80.8515 28.1512 80.8612 28.1579 80.8643 28.1744C80.8733 28.2237 80.8577 28.2777 80.8174 28.3361Z" fill="#5D35EE"/>
<path d="M79.8754 30.6526C79.8246 30.747 79.7739 30.8414 79.7232 30.9358C79.6694 31.0137 79.5895 31.0879 79.4833 31.1584L79.313 31.3428C79.1769 31.4358 79.1232 31.5137 79.1517 31.5765L78.9431 31.6914C78.8863 31.7528 78.843 31.7948 78.8131 31.8173C78.7832 31.8398 78.7301 31.8751 78.6539 31.9231C78.6374 31.9261 78.6142 31.9389 78.5844 31.9614C78.5709 31.9808 78.541 32.0033 78.4947 32.0289C78.4648 32.0514 78.4251 32.0671 78.3757 32.0762C78.3264 32.0853 78.2718 32.1123 78.212 32.1573L77.9651 32.2026C77.9157 32.2116 77.8731 32.211 77.8371 32.2006L77.6149 32.2413C77.5266 32.2235 77.4465 32.2042 77.3746 32.1833C77.3028 32.1625 77.2227 32.1432 77.1343 32.1254C77.0205 32.0612 76.9111 32.0217 76.8063 32.0069C76.6985 31.9756 76.6094 31.9069 76.5389 31.8008C76.3726 31.7292 76.2347 31.6269 76.1253 31.4939C76.0292 31.3414 75.9399 31.1791 75.8573 31.0072L75.7964 30.8142C75.7783 30.7154 75.7579 30.6511 75.7354 30.6212C75.6498 30.4328 75.5889 30.2398 75.5527 30.0423C75.5376 29.96 75.5255 29.8942 75.5164 29.8448C75.5208 29.7759 75.5252 29.7071 75.5296 29.6382L75.4063 28.4104C75.4033 28.3939 75.4025 28.343 75.4038 28.2577C75.4022 28.1559 75.4005 28.0542 75.3988 27.9524C75.4106 27.8311 75.4172 27.7279 75.4185 27.6425C75.4199 27.5572 75.4258 27.4966 75.4362 27.4607L75.4222 27.106L75.395 26.9578C75.3859 26.9085 75.3918 26.8478 75.4126 26.776C75.4335 26.7041 75.4528 26.624 75.4706 26.5356L75.4591 26.3336L75.3513 26.3024C75.3019 26.3114 75.272 26.3339 75.2616 26.3698L74.8136 26.988C74.8031 27.0239 74.801 27.0583 74.807 27.0913C74.8265 27.1047 74.8228 27.1309 74.7959 27.1698C74.7257 27.2508 74.6719 27.3287 74.6346 27.4036C74.5943 27.462 74.5443 27.5137 74.4845 27.5587C74.4173 27.6561 74.3598 27.7603 74.3121 27.8711C74.2809 27.9789 74.2481 28.0785 74.2138 28.1698C74.1167 28.2897 74.0361 28.4066 73.9719 28.5205C73.9047 28.6179 73.8503 28.7384 73.8086 28.8822C73.6863 29.1428 73.5707 29.3937 73.4619 29.6348C73.35 29.8595 73.2186 30.0708 73.0678 30.2686C72.926 30.5158 72.8006 30.7599 72.6918 31.0011C72.5799 31.2258 72.45 31.4452 72.3022 31.6595C72.2784 31.7149 72.256 31.7786 72.2352 31.8504C72.2143 31.9223 72.1853 31.9957 72.148 32.0706C72.0882 32.1156 72.0448 32.1576 72.018 32.1965C71.9911 32.2355 71.953 32.2595 71.9036 32.2686L71.89 32.1945L71.6189 32.525C71.465 32.7063 71.2976 32.8136 71.1165 32.8468C70.9025 32.8861 70.7079 32.8452 70.5326 32.7243C70.3543 32.5869 70.2433 32.4456 70.1996 32.3005C70.1711 32.2377 70.135 32.1337 70.0914 31.9886C70.0447 31.8271 69.995 31.649 69.9423 31.4546C69.9061 31.2571 69.8601 31.0528 69.8044 30.8419C69.7621 30.6115 69.7213 30.3893 69.6821 30.1753C69.6461 30.1649 69.6191 30.1103 69.601 30.0115C69.5919 29.9622 69.5813 29.9046 69.5693 29.8387C69.5572 29.7729 69.5503 29.6891 69.5487 29.5873L69.5009 29.1878C69.4948 29.1549 69.497 29.1204 69.5074 29.0845L69.449 29.0442L69.4909 28.5771L69.4617 28.557L69.3208 27.511C69.3147 27.4781 69.3169 27.4437 69.3273 27.4077C69.3378 27.3718 69.3399 27.3374 69.3339 27.3044L69.2906 26.9296C69.292 26.8443 69.3293 26.7694 69.4025 26.7049C69.4758 26.6404 69.5048 26.567 69.4897 26.4848L69.4761 26.4107C69.506 26.3882 69.5165 26.3522 69.5074 26.3029C69.5014 26.27 69.4871 26.2385 69.4646 26.2087C69.4555 26.1593 69.448 26.1181 69.4419 26.0852L69.448 25.7013L69.3735 25.4343C69.3645 25.3849 69.3651 25.3422 69.3756 25.3063C69.389 25.2868 69.3957 25.2771 69.3957 25.2771C69.3716 25.1454 69.3827 25.0668 69.429 25.0413C69.4888 24.9963 69.5246 24.9132 69.5364 24.7919C69.5512 24.6871 69.5577 24.5838 69.5561 24.4821C69.5514 24.3638 69.5647 24.2508 69.5959 24.143C69.6121 23.9529 69.62 23.7643 69.6197 23.5772C69.6194 23.3901 69.6371 23.2082 69.6727 23.0316C69.6771 22.9627 69.6747 22.9036 69.6657 22.8542C69.6566 22.8048 69.6625 22.7442 69.6833 22.6723C69.728 22.545 69.7569 22.3781 69.7701 22.1716L69.8054 21.8078C69.8024 21.7913 69.8091 21.7816 69.8256 21.7786L69.8749 21.7695C69.8884 21.75 69.9116 21.7373 69.9445 21.7312L69.94 21.7066C69.9369 21.6901 69.9257 21.6751 69.9062 21.6617C69.8733 21.6677 69.8553 21.6625 69.8523 21.6461L69.8634 21.5675C69.8768 21.548 69.882 21.53 69.879 21.5136L69.8745 21.4889C69.8594 21.4066 69.8623 21.3295 69.8831 21.2576C69.9174 21.1663 69.9516 21.0749 69.9859 20.9836C70.0037 20.8952 70.0185 20.7904 70.0303 20.6692C70.0391 20.5315 70.0755 20.4057 70.1397 20.2918C70.1531 20.2724 70.1568 20.2462 70.1508 20.2132C70.1313 20.1998 70.1201 20.1849 70.1171 20.1684C70.111 20.1355 70.1199 20.0913 70.1438 20.0359C70.1841 19.9775 70.208 19.922 70.2154 19.8697C70.2003 19.7874 70.2031 19.7103 70.224 19.6384C70.2448 19.5665 70.2656 19.4946 70.2865 19.4228C70.2834 19.4063 70.2887 19.3883 70.3021 19.3689C70.332 19.3464 70.3454 19.3269 70.3424 19.3104C70.3602 19.2221 70.3796 19.142 70.4004 19.0701C70.4377 18.9952 70.457 18.9151 70.4584 18.8298C70.4611 18.6592 70.493 18.5087 70.5542 18.3784C70.6123 18.2316 70.6704 18.0848 70.7286 17.9381L70.7553 17.8056C70.7523 17.7891 70.7425 17.7824 70.7261 17.7854C70.7261 17.7854 70.7246 17.7772 70.7215 17.7607C70.7185 17.7443 70.7305 17.7166 70.7573 17.6776L70.898 17.1924C70.9561 17.0457 71.003 16.8839 71.0386 16.7073C71.0877 16.5111 71.1495 16.3382 71.2241 16.1884C71.2584 16.097 71.2994 15.9959 71.3471 15.8851C71.3918 15.7578 71.435 15.6223 71.4767 15.4785C71.5304 15.4006 71.558 15.319 71.5593 15.2337C71.5593 15.2337 71.5667 15.1813 71.5815 15.0765L71.5725 15.0271C71.5574 14.9448 71.5834 14.855 71.6506 14.7576C71.7403 14.6901 71.7776 14.6152 71.7625 14.5329L71.8073 14.4991C71.8671 14.4541 71.9007 14.4055 71.9081 14.3531C71.9155 14.3007 71.9296 14.2385 71.9505 14.1666L71.946 14.142C71.9624 14.1389 71.9722 14.1457 71.9752 14.1621C71.9916 14.1591 72.0081 14.1561 72.0246 14.1531C72.0575 14.147 72.0709 14.1275 72.0649 14.0946L72.0422 13.9712L72.1496 13.7218C72.163 13.7023 72.178 13.6911 72.1944 13.6881L72.2191 13.6835L72.2282 13.7329C72.2507 13.7628 72.2619 13.7777 72.2619 13.7777C72.2784 13.7747 72.3068 13.744 72.3471 13.6856L72.4771 13.5596C72.504 13.5207 72.5174 13.5012 72.5174 13.5012C72.5174 13.5012 72.4897 13.4893 72.4343 13.4654C72.4178 13.4684 72.4066 13.4535 72.4005 13.4206C72.3975 13.4041 72.3863 13.3892 72.3668 13.3757L72.528 13.142C72.5684 13.0835 72.584 13.0296 72.5749 12.9802L72.5659 12.9309L72.6062 12.8724L72.6576 12.7354C72.6845 12.6964 72.6964 12.6687 72.6934 12.6523C72.7068 12.6328 72.7465 12.617 72.8123 12.6049C72.8422 12.5824 72.8639 12.5614 72.8773 12.542C72.8877 12.506 72.9079 12.4768 72.9378 12.4543L73.0118 12.4407C72.9984 12.4602 72.9917 12.4699 72.9917 12.4699L72.7049 12.8543C72.6945 12.8902 72.6893 12.9082 72.6893 12.9082C72.6759 12.9277 72.6707 12.9457 72.6737 12.9621L72.6782 12.9868L72.7523 12.9732C72.8614 12.9192 72.9444 12.8614 73.0012 12.7999C73.0549 12.722 73.1072 12.6359 73.1579 12.5415C73.1549 12.5251 73.1534 12.5168 73.1534 12.5168C73.1668 12.4973 73.172 12.4794 73.169 12.4629C73.166 12.4465 73.1563 12.4397 73.1398 12.4428C73.1368 12.4263 73.1338 12.4098 73.1307 12.3934C73.1277 12.3769 73.118 12.3702 73.1015 12.3732C73.0985 12.3568 73.0955 12.3403 73.0925 12.3238C73.0683 12.1922 73.1467 12.1097 73.3278 12.0765C73.3772 12.0674 73.4265 12.0584 73.4759 12.0493C73.5418 12.0372 73.5896 12.02 73.6195 11.9975C73.633 11.978 73.6561 11.9652 73.6891 11.9592C73.7055 11.9562 73.7235 11.9614 73.743 11.9748C73.7715 12.0376 73.8351 12.06 73.9339 12.0418C73.9504 12.0388 73.9668 12.0358 73.9833 12.0328C73.9967 12.0133 74.0117 12.0021 74.0281 11.999C74.1104 11.9839 74.1942 11.9771 74.2795 11.9784C74.3648 11.9798 74.4315 12.0186 74.4795 12.0948C74.4826 12.1113 74.5005 12.1165 74.5334 12.1105C74.5499 12.1075 74.5679 12.1127 74.5873 12.1261C74.6008 12.1066 74.6322 12.0923 74.6816 12.0833C74.7145 12.0772 74.7422 12.0892 74.7647 12.1191C74.8037 12.146 74.8426 12.1728 74.8816 12.1997C75.1063 12.3116 75.2614 12.4618 75.347 12.6502L75.3516 12.6749C75.3546 12.6914 75.3628 12.6898 75.3762 12.6704C75.5291 12.7614 75.6243 12.863 75.6619 12.9752C75.7159 13.0844 75.755 13.2048 75.7792 13.3365L75.8018 13.4599C75.8109 13.5093 75.82 13.5587 75.829 13.6081C75.8515 13.638 75.8673 13.6776 75.8764 13.727C75.8884 13.7928 75.8923 13.8602 75.8879 13.929C75.897 13.9784 75.9008 14.0457 75.8995 14.131C75.9448 14.3779 75.9669 14.6376 75.9658 14.91C75.99 15.0416 75.988 15.1696 75.9597 15.2939C75.948 15.4151 75.9295 15.5461 75.9042 15.6869C75.8716 15.88 75.8488 16.0798 75.8356 16.2864C75.8195 16.4765 75.7853 16.6614 75.7333 16.8411L75.5951 17.4789C75.5638 17.5867 75.5408 17.693 75.526 17.7978C75.5112 17.9026 75.4897 18.0171 75.4615 18.1414C75.4511 18.1774 75.4391 18.2051 75.4257 18.2245C75.4122 18.244 75.4003 18.2717 75.3899 18.3077C75.3331 18.3691 75.301 18.426 75.2936 18.4784C75.3027 18.5278 75.2983 18.5967 75.2805 18.685C75.2896 18.7344 75.2837 18.795 75.2628 18.8669C75.239 18.9223 75.2166 18.986 75.1958 19.0578C75.1676 19.1821 75.1341 19.3243 75.0955 19.4845C75.0568 19.6448 74.9987 19.7915 74.9211 19.9249L74.7915 20.3314C74.7811 20.3674 74.7707 20.4033 74.7603 20.4392C74.7498 20.4752 74.7312 20.5126 74.7043 20.5516C74.6731 20.6594 74.6418 20.7672 74.6106 20.875C74.5927 20.9634 74.5502 21.0562 74.483 21.1536L74.4966 21.2277L74.1367 22.1869C74.1458 22.2363 74.1369 22.2804 74.11 22.3194C74.0996 22.3553 74.0809 22.3928 74.0541 22.4317L73.9961 22.6721C73.9692 22.711 73.9341 22.7515 73.8908 22.7935C73.8474 22.8354 73.8086 22.9021 73.7743 22.9935C73.7955 23.1087 73.7627 23.2083 73.676 23.2922C73.6791 23.3087 73.6806 23.3169 73.6806 23.3169C73.6285 23.4966 73.5636 23.6531 73.486 23.7864C73.4249 23.9168 73.3682 24.0718 73.3162 24.2514C73.3044 24.3727 73.2835 24.4446 73.2536 24.4671C73.2207 24.4731 73.1789 24.5233 73.1282 24.6177L73.0052 24.921C72.9874 25.0093 72.9531 25.1007 72.9024 25.195C72.8651 25.2699 72.8226 25.3628 72.7748 25.4736L72.3968 26.3341C72.2581 26.5977 72.129 26.8681 72.0097 27.1452C71.8905 27.4223 71.7502 27.6777 71.5889 27.9114L71.4437 28.3719C71.3886 28.5351 71.3716 28.6744 71.3928 28.7896C71.4049 28.8554 71.4237 28.9115 71.4492 28.9579C71.4747 29.0042 71.4905 29.0438 71.4965 29.0768C71.5056 29.1261 71.4967 29.1703 71.4698 29.2093C71.4594 29.2452 71.4572 29.2796 71.4632 29.3126C71.4663 29.329 71.4842 29.3342 71.5171 29.3282C71.6159 29.3101 71.7183 29.2657 71.8245 29.1952C71.9471 29.1217 72.0585 29.0332 72.1586 28.9298L72.1495 28.8804L72.1898 28.8219L72.2256 28.7388L72.2816 28.6265L72.2927 28.5479L72.2881 28.5232L72.3284 28.4648L72.3531 28.4602L72.3778 28.4557C72.4181 28.3973 72.4383 28.368 72.4383 28.368C72.5068 28.1853 72.5934 28.0078 72.6979 27.8355C72.8023 27.6633 72.9083 27.4992 73.0159 27.3434C73.0397 27.2879 73.0651 27.2408 73.092 27.2018C73.1188 27.1628 73.1607 27.1126 73.2174 27.0512L73.4346 26.7051L73.5778 26.3726C73.6987 26.1973 73.8032 26.025 73.8913 25.8557C73.9927 25.667 74.1219 25.4901 74.2788 25.3253L75.0498 24.5203C75.2275 24.2835 75.4151 24.147 75.6126 24.1108C75.7607 24.0836 75.903 24.117 76.0393 24.2111C76.1891 24.2857 76.3285 24.3962 76.4575 24.5427C76.5834 24.6727 76.6974 24.8304 76.7995 25.0158C76.918 25.1982 77.0268 25.3739 77.1259 25.5429C77.1053 25.8018 77.129 26.0697 77.1968 26.3465C77.278 26.6038 77.2986 26.8552 77.2586 27.1007C77.2482 27.1367 77.2453 27.2138 77.25 27.332C77.2517 27.4338 77.2466 27.5453 77.2348 27.6665C77.2395 27.7848 77.2427 27.8948 77.2443 27.9965C77.246 28.0983 77.2499 28.1657 77.2559 28.1986L77.2584 28.3512C77.2735 28.4335 77.2834 28.5338 77.2881 28.652C77.3062 28.7508 77.2981 28.8458 77.2638 28.9372L77.3644 30.0416L77.3825 30.1403C77.4037 30.2555 77.4285 30.3446 77.4571 30.4074L77.5225 30.625L77.5452 30.7485C77.5992 30.8576 77.6592 30.9062 77.725 30.8941C77.7908 30.882 77.8469 30.8632 77.8933 30.8377L77.9135 30.8085C77.9434 30.786 77.9994 30.7672 78.0817 30.7521L78.2299 30.7249C78.2957 30.7128 78.3518 30.694 78.3982 30.6685C78.4445 30.643 78.4909 30.6175 78.5372 30.592C78.5836 30.5664 78.6382 30.5394 78.701 30.5109C78.8145 30.388 78.9199 30.2665 79.0169 30.1467C79.114 30.0268 79.1947 29.9099 79.2588 29.796C79.3724 29.6731 79.4927 29.5405 79.6196 29.3981C79.7631 29.2527 79.8968 29.1005 80.0208 28.9417C80.1105 28.8742 80.1807 28.7932 80.2314 28.6989L80.2137 28.8807C80.2168 28.8972 80.2116 28.9152 80.1981 28.9347C80.1981 28.9347 80.1996 28.9429 80.2026 28.9593C80.2087 28.9923 80.1534 29.0619 80.0368 29.1684C79.9337 29.2554 79.8919 29.3056 79.9114 29.319L79.9361 29.3145C79.9854 29.3054 80.0729 29.2724 80.1986 29.2153C80.3242 29.1582 80.4035 29.1266 80.4364 29.1206C80.4528 29.1176 80.4611 29.1161 80.4611 29.1161L80.4701 29.1655L80.3648 29.2869C80.3648 29.2869 80.3349 29.3094 80.2751 29.3544C80.2153 29.3994 80.1473 29.4459 80.0711 29.4939C80.0082 29.5224 79.9469 29.5592 79.8871 29.6042C79.8438 29.6462 79.8221 29.6671 79.8221 29.6671C79.8252 29.6836 79.8349 29.6903 79.8514 29.6873C79.8843 29.6813 79.9501 29.6692 80.0489 29.6511C80.1446 29.6165 80.2089 29.5962 80.2418 29.5901L80.2464 29.6148C80.2494 29.6313 80.221 29.662 80.1612 29.707C80.1179 29.749 80.0596 29.8022 79.9863 29.8667C79.9266 29.9117 79.8683 29.9649 79.8115 30.0264C79.7682 30.0684 79.748 30.0976 79.751 30.114L79.7601 30.1634C79.7631 30.1799 79.7811 30.1851 79.814 30.179C79.8634 30.17 79.9411 30.1302 80.0473 30.0597C80.1699 29.9861 80.2477 29.9463 80.2806 29.9403L80.3053 29.9358C80.3083 29.9522 80.2381 30.0332 80.0946 30.1786C79.9646 30.3045 79.8944 30.3855 79.884 30.4214C79.8705 30.4409 79.8638 30.4506 79.8638 30.4506L79.8729 30.5C79.8759 30.5164 79.864 30.5442 79.8371 30.5831C79.8072 30.6056 79.7938 30.6251 79.7968 30.6415C79.8163 30.655 79.8342 30.6602 79.8507 30.6572L79.8754 30.6526ZM74.3378 13.2692C74.2958 13.2259 74.2419 13.2103 74.176 13.2224C74.1132 13.2509 74.0437 13.2892 73.9674 13.3372C73.9046 13.3657 73.8643 13.4242 73.8465 13.5125L73.7815 13.5755L73.4277 14.1508C73.3575 14.2317 73.3052 14.3179 73.271 14.4092C73.2532 14.4975 73.2091 14.5822 73.1389 14.6631C73.106 14.6692 73.0956 14.7051 73.1077 14.7709L72.6268 15.9055C72.5657 16.0358 72.4963 16.1676 72.4187 16.3009C72.3575 16.4312 72.3226 16.5653 72.3138 16.703C72.2721 16.8467 72.2387 16.989 72.2135 17.1297C72.1883 17.2704 72.1466 17.4142 72.0885 17.5609L71.8939 18.0305C71.8388 18.1937 71.7852 18.3652 71.7331 18.5448C71.6944 18.7051 71.6461 18.8585 71.5879 19.0053C71.5553 19.1984 71.5077 19.4028 71.4452 19.6185C71.3827 19.8341 71.3284 20.0482 71.2824 20.2608C71.2767 20.415 71.2447 20.5654 71.1866 20.7122C71.1449 20.856 71.1227 21.0132 71.12 21.1838C71.1143 21.3379 71.089 21.4787 71.0444 21.606C70.9997 21.7333 70.9842 21.8807 70.9979 22.0483C70.9472 22.1427 70.9227 22.2408 70.9243 22.3425C70.9394 22.4248 70.9164 22.5311 70.8552 22.6615L70.9504 23.1799C70.9655 23.2622 70.9678 23.3213 70.9574 23.3573L70.9114 24.0802C70.8832 24.2045 70.8714 24.3258 70.8761 24.444C70.8808 24.5622 70.887 24.6887 70.8947 24.8234L70.8367 25.0637L70.9042 25.1534L71.0342 25.0274C71.1209 24.9435 71.1783 24.8394 71.2066 24.7151C71.2274 24.6432 71.2513 24.5878 71.2781 24.5489C71.302 24.4934 71.3274 24.4463 71.3542 24.4073C71.4272 24.1557 71.5354 23.9572 71.6788 23.8118L71.6697 23.7625C71.6607 23.7131 71.6614 23.6704 71.6718 23.6345C71.6956 23.5791 71.721 23.5319 71.7479 23.4929C71.7748 23.454 71.7986 23.3985 71.8194 23.3267C71.8403 23.2548 71.8873 23.1866 71.9606 23.1221C71.9649 23.0533 72.0007 22.9702 72.0679 22.8728C72.0619 22.8398 72.0641 22.8054 72.0745 22.7695C72.0819 22.7171 72.1005 22.6796 72.1304 22.6571L72.1773 22.4954C72.225 22.3846 72.2727 22.2737 72.3204 22.1629C72.3682 22.0521 72.4271 21.9562 72.4973 21.8753L72.8325 20.9206C72.8578 20.7798 72.8942 20.6541 72.9419 20.5432C73.0061 20.4294 73.0553 20.3268 73.0896 20.2354C73.094 20.1666 73.0984 20.0977 73.1027 20.0288C73.1041 19.9435 73.1429 19.8769 73.2192 19.8288C73.198 19.7136 73.2076 19.6268 73.2479 19.5684C73.2882 19.5099 73.3106 19.4463 73.315 19.3774C73.364 19.1813 73.4176 19.0098 73.4758 18.8631C73.5473 18.6968 73.5942 18.5351 73.6164 18.3779C73.649 18.1848 73.6832 17.9999 73.7188 17.8232C73.7544 17.6465 73.7736 17.4729 73.7763 17.3023L73.9063 17.1763C73.9571 17.0819 74.0011 16.9973 74.0384 16.9224C74.0726 16.8311 74.0792 16.7278 74.0581 16.6126C74.0655 16.5602 74.0631 16.5011 74.0511 16.4352C74.0554 16.3664 74.0957 16.3079 74.172 16.2599C74.169 16.2435 74.1675 16.2352 74.1675 16.2352C74.1809 16.2157 74.1861 16.1978 74.1831 16.1813L74.1423 15.9591C74.1333 15.9097 74.1519 15.8723 74.1983 15.8468C74.2416 15.8048 74.2603 15.7674 74.2542 15.7344L74.2673 15.5279L74.3301 14.0618C74.3405 14.0258 74.3336 13.942 74.3095 13.8103C74.2913 13.7116 74.2695 13.639 74.244 13.5927C74.2229 13.4775 74.2422 13.3974 74.302 13.3524C74.3349 13.3463 74.3468 13.3186 74.3378 13.2692ZM70.0061 20.9544L70.0806 21.2214C70.0927 21.2872 70.0935 21.3381 70.0831 21.3741C70.0653 21.4624 70.0475 21.5507 70.0296 21.6391C70.0118 21.7274 70.0022 21.8142 70.0009 21.8995C69.9982 22.0702 69.976 22.2273 69.9343 22.3711C69.9091 22.5118 69.8756 22.6541 69.834 22.7978C69.8222 22.9191 69.8254 23.0291 69.8435 23.1278C69.8616 23.2266 69.8715 23.3268 69.8732 23.4286C69.8523 23.5005 69.8419 23.5364 69.8419 23.5364C69.851 23.5858 69.8802 23.606 69.9296 23.5969C69.9326 23.6134 69.9475 23.6021 69.9744 23.5632C69.9878 23.5437 69.9915 23.5175 69.9855 23.4846L69.9674 23.3858C69.9523 23.3035 69.9484 23.2362 69.9558 23.1838C69.9632 23.1314 69.9788 23.0775 70.0027 23.022C70.0639 22.8917 70.0869 22.7854 70.0718 22.7031L70.1273 22.3102L70.1732 21.5872C70.2284 21.424 70.267 21.2637 70.2892 21.1066C70.3248 20.9299 70.365 20.7779 70.4097 20.6506C70.4171 20.5982 70.4163 20.5473 70.4072 20.498C70.4116 20.4291 70.4272 20.3752 70.4541 20.3362C70.4884 20.2449 70.5159 20.1633 70.5368 20.0914C70.5576 20.0195 70.5799 19.9559 70.6038 19.9004C70.5887 19.8182 70.5803 19.7261 70.5787 19.6244C70.5904 19.5031 70.6314 19.402 70.7016 19.3211C70.7164 19.2163 70.7312 19.1115 70.746 19.0067C70.7578 18.8854 70.804 18.7664 70.8846 18.6495C70.8635 18.5343 70.8783 18.4295 70.929 18.3351C70.9798 18.2407 71.011 18.1329 71.0228 18.0117C71.0198 17.9952 71.0183 17.987 71.0183 17.987C71.0317 17.9675 71.0369 17.9495 71.0339 17.9331C71.0279 17.9002 71.0383 17.8642 71.0651 17.8253C71.0994 17.7339 71.1255 17.6441 71.1433 17.5557C71.1611 17.4674 71.1789 17.3791 71.1967 17.2907L71.3132 17.0907C71.3101 17.0743 71.3153 17.0563 71.3288 17.0368C71.3422 17.0174 71.3572 17.0061 71.3736 17.0031L71.3399 16.9582C71.3338 16.9253 71.3473 16.9058 71.3802 16.8998C71.3967 16.8968 71.4019 16.8788 71.3958 16.8459C71.3958 16.8459 71.3733 16.816 71.3283 16.7562L71.279 16.7653C71.246 16.7713 71.2161 16.7938 71.1893 16.8328L71.2028 16.9068C71.2062 17.1104 71.1675 17.2706 71.0869 17.3875C71.0436 17.4294 71.0197 17.4848 71.0153 17.5537C71.0109 17.6226 70.9968 17.6847 70.973 17.7401L70.7915 18.0031L70.7492 18.1895L70.6649 18.8429L70.5021 19.4853L70.4174 19.8581C70.3398 19.9914 70.2959 20.1696 70.2858 20.3926C70.2918 20.4256 70.2881 20.4518 70.2747 20.4712C70.2314 20.5132 70.2112 20.5424 70.2142 20.5589L70.257 20.6531L70.2303 20.7856C70.2364 20.8185 70.2327 20.8447 70.2192 20.8642L70.1608 20.8239C70.1578 20.8074 70.148 20.8007 70.1316 20.8037C70.1285 20.7873 70.1255 20.7708 70.1225 20.7544C70.1017 20.8262 70.0897 20.8539 70.0867 20.8375L70.0061 20.9544Z" fill="#5D35EE"/>
<path d="M67.778 14.3452C67.7558 14.5024 67.7508 14.6139 67.7629 14.6798C67.781 14.7785 67.7654 14.8324 67.716 14.8415C67.6995 14.8445 67.6554 14.8356 67.5835 14.8148L67.5633 14.844C67.5694 14.8769 67.5806 14.8919 67.5971 14.8888C67.6001 14.9053 67.6098 14.912 67.6263 14.909C67.6427 14.906 67.6607 14.9112 67.6802 14.9246C67.6997 14.9381 67.7109 14.953 67.7139 14.9695L67.7185 14.9942C67.6227 15.0287 67.527 15.0633 67.4313 15.0979C67.349 15.113 67.2667 15.1281 67.1844 15.1432C67.0692 15.1643 66.9854 15.1712 66.933 15.1638L66.7602 15.1955C66.6181 15.2556 66.4595 15.3187 66.2845 15.3849C66.126 15.448 65.9839 15.5081 65.8583 15.5652C65.6204 15.6599 65.3655 15.8002 65.0934 15.9863C65.0306 16.0148 64.9595 16.0448 64.8802 16.0764C64.8174 16.1049 64.7591 16.1582 64.7054 16.2361C64.692 16.2556 64.6605 16.2698 64.6112 16.2789L64.5371 16.2925C64.4548 16.3076 64.3755 16.3391 64.2993 16.3872C64.2395 16.4322 64.1797 16.4772 64.1199 16.5222C64.093 16.5611 64.0661 16.6001 64.0393 16.639C64.0094 16.6615 63.9697 16.6773 63.9204 16.6864C63.9039 16.6894 63.8874 16.6924 63.871 16.6954C63.8515 16.682 63.8335 16.6768 63.8171 16.6798C63.7828 16.7712 63.7193 16.8424 63.6266 16.8934C63.5309 16.928 63.4561 16.9842 63.4024 17.0621C63.3845 17.1505 63.3525 17.2074 63.3061 17.2329C63.1744 17.2571 63.0653 17.3111 62.9786 17.3951C62.9084 17.476 62.8187 17.5435 62.7095 17.5976C62.6198 17.6651 62.5347 17.7573 62.454 17.8741C62.3778 17.9222 62.318 17.9672 62.2746 18.0091C62.2313 18.0511 62.17 18.0879 62.0907 18.1194L61.8756 18.3376C61.8084 18.435 61.7366 18.5077 61.6604 18.5557C61.5841 18.6037 61.5124 18.6764 61.4452 18.7738C61.4123 18.7798 61.3824 18.8023 61.3555 18.8413C61.2299 18.8984 61.1155 18.9704 61.0124 19.0574C60.9092 19.1444 60.8076 19.2396 60.7075 19.343C60.3998 19.7057 60.0314 20.0625 59.6024 20.4134C59.4889 20.5364 59.3836 20.6578 59.2865 20.7777C59.2028 20.8781 59.111 20.98 59.0108 21.0834L58.5805 21.5197C58.5402 21.5781 58.4931 21.6463 58.4394 21.7242C58.4021 21.7991 58.3423 21.8441 58.26 21.8592C58.2153 21.9865 58.1496 22.0921 58.063 22.1761C57.9763 22.26 57.8747 22.3552 57.7581 22.4617L56.7679 23.7407C56.741 23.7797 56.7208 23.8089 56.7074 23.8284C56.694 23.8479 56.6805 23.8673 56.6671 23.8868C56.6462 23.9587 56.6224 24.0141 56.5955 24.0531C56.5686 24.092 56.5418 24.131 56.5149 24.1699C56.4074 24.3258 56.3066 24.4719 56.2125 24.6082C56.1349 24.7415 56.07 24.8981 56.0179 25.0777C55.9971 25.1496 55.9927 25.2185 56.0048 25.2843L56.0184 25.3584C56.0755 25.484 56.107 25.5633 56.1131 25.5962L56.1312 25.695C56.1342 25.7114 56.1455 25.7264 56.165 25.7398C56.1979 25.7338 56.2241 25.7375 56.2435 25.7509C56.302 25.7912 56.3522 25.833 56.3942 25.8764C56.4526 25.9167 56.5095 25.9488 56.5649 25.9726C56.6368 25.9935 56.6922 26.0173 56.7312 26.0442C56.7836 26.0516 56.854 26.0642 56.9423 26.082C57.0756 26.1596 57.2291 26.208 57.4028 26.2272L58.0496 26.4147C58.138 26.4326 58.1986 26.4384 58.2315 26.4324C58.2779 26.4069 58.3288 26.4061 58.3842 26.4299L60.3445 26.6827C60.5675 26.6928 60.7823 26.7044 60.9889 26.7175C61.2119 26.7276 61.4298 26.7557 61.6424 26.8018L62.6933 26.9662L63.2772 27.0887C63.385 27.12 63.4883 27.1266 63.5871 27.1084C63.6529 27.0964 63.7307 27.0566 63.8204 26.9891C63.8338 26.9696 63.8487 26.9583 63.8652 26.9553C63.8622 26.9389 63.8689 26.9291 63.8854 26.9261C63.9048 26.9395 63.9228 26.9448 63.9393 26.9417C63.9423 26.9582 63.9273 26.9694 63.8944 26.9755L63.8722 27.1327C63.8843 27.1985 63.9293 27.2583 64.0072 27.3121C64.0401 27.306 64.0761 27.3164 64.115 27.3433C64.1674 27.3507 64.2116 27.3596 64.2475 27.37C64.2835 27.3805 64.3194 27.3909 64.3554 27.4013C64.3883 27.3952 64.4175 27.4154 64.443 27.4618C64.4625 27.4752 64.4805 27.4804 64.4969 27.4774L64.5463 27.4683C64.5597 27.4489 64.5829 27.4361 64.6158 27.4301C64.6487 27.424 64.6667 27.4292 64.6697 27.4457C64.6892 27.4591 64.7184 27.4793 64.7574 27.5062C64.8773 27.6032 64.9911 27.6674 65.0989 27.6987C65.2367 27.7074 65.3542 27.7454 65.4516 27.8126C65.549 27.8798 65.6629 27.944 65.7932 28.0051C65.8546 28.0619 65.9161 28.1187 65.9775 28.1754C66.039 28.2322 66.0989 28.2808 66.1574 28.3211C66.1963 28.348 66.2323 28.3584 66.2652 28.3523C66.3864 28.3641 66.4531 28.4029 66.4652 28.4688L66.4743 28.5181C66.4937 28.5316 66.5117 28.5368 66.5282 28.5338C66.6105 28.5187 66.6644 28.5343 66.6899 28.5806C66.7154 28.627 66.7424 28.6816 66.771 28.7444C66.9103 28.8549 67.0497 28.9655 67.1891 29.076C67.3449 29.1835 67.4791 29.312 67.5916 29.4615C67.827 29.7245 68.0026 30.0325 68.1184 30.3856C68.2114 30.5216 68.2783 30.654 68.3189 30.7826C68.34 30.8978 68.3627 31.0213 68.3868 31.153C68.408 31.2682 68.4388 31.3901 68.4795 31.5187C68.4825 31.5352 68.4773 31.5532 68.4638 31.5727C68.4669 31.5891 68.4699 31.6056 68.4729 31.622C68.4148 31.7688 68.3843 31.9275 68.3816 32.0981C68.3759 32.2523 68.3275 32.4058 68.2364 32.5586C68.1964 32.8041 68.1257 33.0213 68.0242 33.21C67.9228 33.3988 67.8063 33.5988 67.675 33.81C67.6138 33.9403 67.5414 34.0557 67.4578 34.1561C67.3771 34.273 67.2868 34.3831 67.1867 34.4866C67.1359 34.5809 67.0739 34.6604 67.0007 34.7248C66.9305 34.8058 66.8356 34.8912 66.716 34.9812C66.6861 35.0037 66.6562 35.0262 66.6263 35.0487C66.6159 35.0847 66.5808 35.1251 66.521 35.1701C66.4209 35.2736 66.3193 35.3688 66.2161 35.4558C66.113 35.5427 65.9904 35.6163 65.8483 35.6764C65.7378 35.8157 65.5868 35.92 65.3953 35.9892C65.2203 36.0553 65.0663 36.1431 64.9333 36.2526C64.8002 36.3621 64.6612 36.4386 64.516 36.4823C64.3874 36.5229 64.2603 36.5717 64.1346 36.6288C63.9522 36.7473 63.7571 36.8427 63.5491 36.9149C63.3607 37.0005 63.1625 37.0794 62.9546 37.1516L62.683 37.2014C62.6665 37.2044 62.6568 37.1977 62.6538 37.1813L62.6291 37.1858C62.5962 37.1918 62.573 37.2046 62.5596 37.2241C62.5491 37.26 62.5275 37.281 62.4946 37.287L62.4452 37.2961C62.4092 37.2857 62.3584 37.2865 62.2925 37.2986C62.2267 37.3107 62.1871 37.3264 62.1736 37.3459C62.1602 37.3654 62.1452 37.3767 62.1288 37.3797L62.0794 37.3887L60.7442 37.7613L60.4973 37.8066C60.3327 37.8368 60.2063 37.843 60.1179 37.8252L59.9945 37.8479C59.8359 37.911 59.7155 37.9501 59.6332 37.9652C59.5016 37.9894 59.3721 37.9791 59.2448 37.9344C59.1789 37.9465 59.1393 37.9623 59.1259 37.9817C59.0825 38.0237 59.0279 38.0507 58.9621 38.0628C58.9127 38.0719 58.8701 38.0712 58.8341 38.0608C58.8147 38.0473 58.7802 38.0452 58.7309 38.0542L58.6568 38.0678C58.4428 38.1071 58.2557 38.1074 58.0955 38.0687C58.0566 38.0418 58.0124 38.0329 57.963 38.042C57.9137 38.0511 57.8545 38.0534 57.7857 38.049C57.6675 38.0537 57.5529 38.0322 57.4421 37.9845C57.3507 37.9502 57.2362 37.9287 57.0985 37.9199C57.0266 37.8991 56.9907 37.8887 56.9907 37.8887C56.9742 37.8917 56.9578 37.8947 56.9413 37.8977C56.9443 37.9142 56.9376 37.9239 56.9211 37.9269C56.8553 37.939 56.7954 37.8905 56.7413 37.7813C56.6439 37.7141 56.545 37.6387 56.4446 37.555C56.3472 37.4879 56.2782 37.3899 56.2376 37.2613L56.1837 37.2457C56.1088 37.2084 56.0683 37.1732 56.0623 37.1403C56.0562 37.1074 56.0584 37.073 56.0688 37.037C56.0792 37.0011 56.0814 36.9667 56.0754 36.9338C56.1023 36.8948 56.1112 36.8506 56.1021 36.8013C56.0961 36.7683 56.0983 36.7339 56.1087 36.698C56.0906 36.5992 56.0456 36.5394 55.9737 36.5186C55.8494 36.4904 55.7797 36.4351 55.7646 36.3528C55.7586 36.3199 55.7608 36.2855 55.7712 36.2495C55.7561 36.1672 55.7568 36.1246 55.7732 36.1215L55.7259 36.0026C55.6943 35.9234 55.7353 35.8223 55.8489 35.6994L55.9069 35.459C55.9277 35.3872 55.9568 35.3138 55.9941 35.2389C56.0149 35.167 56.0455 35.1019 56.0858 35.0434C56.1201 34.9521 56.1446 34.854 56.1594 34.7492C56.1577 34.6474 56.1576 34.5539 56.1589 34.4686C56.1438 34.3863 56.1601 34.2897 56.2079 34.1789C56.3019 34.0425 56.3878 33.9077 56.4654 33.7743C56.5595 33.638 56.6618 33.5001 56.7723 33.3608C56.8395 33.2634 56.9164 33.1727 57.0031 33.0887C57.0897 33.0048 57.1637 32.8976 57.2248 32.7673C57.3071 32.7522 57.3587 32.7087 57.3795 32.6369C57.4003 32.565 57.4489 32.505 57.5251 32.457C57.5849 32.412 57.6268 32.3618 57.6506 32.3064C57.6879 32.2315 57.7365 32.1716 57.7963 32.1266C57.8561 32.0816 57.9061 32.0298 57.9464 31.9714C58.0032 31.9099 58.06 31.8485 58.1168 31.787L58.1414 31.7825C58.1579 31.7795 58.1661 31.778 58.1661 31.778C58.1631 31.7615 58.1698 31.7518 58.1863 31.7488C58.2222 31.7592 58.2402 31.7644 58.2402 31.7644C58.2657 31.8107 58.2949 31.8309 58.3278 31.8249C58.3608 31.8188 58.3974 31.7866 58.4377 31.7281L59.1618 31.0849C59.1618 31.0849 59.1783 31.0819 59.2112 31.0758C59.2172 31.1087 59.212 31.1267 59.1956 31.1297C59.1613 31.2211 59.106 31.2908 59.0298 31.3388C58.9669 31.3673 58.9139 31.4026 58.8705 31.4446C58.8107 31.4896 58.7808 31.5121 58.7808 31.5121L58.7854 31.5367C58.7914 31.5697 58.8027 31.5846 58.8191 31.5816C58.8356 31.5786 58.8505 31.5673 58.864 31.5478C58.8774 31.5284 58.8924 31.5171 58.9088 31.5141L58.9829 31.5005C59.0487 31.4884 59.1182 31.4501 59.1915 31.3857C59.2184 31.3467 59.2535 31.3062 59.2968 31.2643C59.3371 31.2058 59.382 31.1721 59.4313 31.163C59.4942 31.1345 59.539 31.1007 59.5659 31.0618C59.5897 31.0064 59.6203 30.9412 59.6576 30.8663L59.8864 30.7223L60.2653 30.423C60.3221 30.3616 60.3706 30.3016 60.4109 30.2432C60.4512 30.1848 60.5125 30.148 60.5948 30.1329C60.6607 30.1208 60.6958 30.0803 60.7002 30.0115C60.7076 29.9591 60.7359 29.9284 60.7853 29.9193C60.8018 29.9163 60.8198 29.9215 60.8392 29.9349C60.8587 29.9484 60.8849 29.9521 60.9178 29.946C60.9343 29.943 60.9724 29.919 61.0322 29.874C61.1085 29.826 61.1817 29.7615 61.2519 29.6806C61.3386 29.5966 61.4298 29.5373 61.5255 29.5028C61.6572 29.4786 61.7596 29.4343 61.8329 29.3698C61.9061 29.3053 61.9726 29.2506 62.0324 29.2056C62.0922 29.1606 62.152 29.1156 62.2118 29.0706C62.2686 29.0091 62.3201 28.9657 62.3665 28.9401C62.3994 28.9341 62.4144 28.9228 62.4113 28.9064L62.4068 28.8817C62.4008 28.8488 62.3783 28.8189 62.3393 28.792L62.2652 28.8056C62.1306 28.8133 61.9883 28.7799 61.8385 28.7053C61.7965 28.6619 61.7591 28.6433 61.7262 28.6493C61.6768 28.6584 61.6484 28.6891 61.641 28.7415L61.5916 28.7506C61.5722 28.7371 61.5624 28.7304 61.5624 28.7304L61.5579 28.7057C61.5549 28.6893 61.5436 28.6743 61.5241 28.6609C61.5181 28.628 61.4986 28.6145 61.4657 28.6206C61.4103 28.5967 61.3497 28.5908 61.2838 28.6029C61.2314 28.5955 61.179 28.5881 61.1266 28.5807C61.0773 28.5898 61.0249 28.5824 60.9695 28.5585C60.914 28.5346 60.8534 28.5288 60.7876 28.5408C60.7711 28.5439 60.733 28.5679 60.6732 28.6129L60.6485 28.6174C60.6156 28.6234 60.5729 28.6228 60.5205 28.6154C60.4846 28.6049 60.4502 28.6028 60.4173 28.6088L59.5774 28.4822L59.1396 28.4605C59.0512 28.4426 58.9726 28.4315 58.9038 28.4272C58.8514 28.4198 58.7908 28.4139 58.7219 28.4095C58.5842 28.4007 58.4532 28.3822 58.3289 28.354C58.2211 28.3228 58.0969 28.2945 57.9561 28.2693C57.8124 28.2276 57.6814 28.2091 57.5632 28.2138C57.4584 28.199 57.3521 28.176 57.2442 28.1447C57.1334 28.097 57.0256 28.0658 56.9208 28.051C56.813 28.0197 56.6857 27.975 56.5389 27.9169C56.467 27.8961 56.3922 27.8588 56.3142 27.805C56.2528 27.7482 56.2063 27.6802 56.1747 27.6009C56.1418 27.607 56.1059 27.5966 56.0669 27.5697C55.9725 27.5189 55.8797 27.4764 55.7883 27.4422C55.7134 27.4049 55.6273 27.3526 55.5299 27.2854C55.4489 27.2152 55.3732 27.127 55.3027 27.0209C55.2322 26.9147 55.1482 26.8281 55.0508 26.7609C54.85 26.5936 54.7105 26.3895 54.6322 26.1486C54.6262 26.1157 54.6217 26.091 54.6187 26.0746C54.5992 26.0611 54.5864 26.038 54.5804 26.005C54.5743 25.9721 54.578 25.9459 54.5915 25.9264L54.5869 25.9018C54.5614 25.8554 54.5389 25.8255 54.5194 25.8121C54.4969 25.7822 54.4827 25.7508 54.4766 25.7178C54.4736 25.7014 54.4788 25.6834 54.4923 25.6639C54.5027 25.628 54.5019 25.5771 54.4898 25.5113L54.4424 25.3924C54.4169 25.346 54.3936 25.2652 54.3724 25.15C54.3302 24.9196 54.353 24.7197 54.4411 24.5505L54.4723 24.4427C54.4498 24.4128 54.4325 24.3649 54.4205 24.2991C54.4053 24.2168 54.4112 24.1561 54.4381 24.1172C54.4784 24.0588 54.5105 24.0018 54.5344 23.9464C54.5881 23.8685 54.6187 23.8033 54.6261 23.7509C54.6335 23.6985 54.6476 23.6364 54.6685 23.5645C54.6953 23.5256 54.7058 23.4896 54.6997 23.4567C54.7101 23.4208 54.7221 23.3931 54.7355 23.3736C54.8447 23.3195 54.9164 23.2468 54.9507 23.1555C54.9819 23.0477 55.0327 22.9533 55.1029 22.8723C55.167 22.7585 55.2327 22.6529 55.2999 22.5555C55.3671 22.4581 55.4328 22.3525 55.497 22.2386C55.5642 22.1412 55.6277 22.07 55.6875 22.025L55.6784 21.9756C55.7577 21.9441 55.816 21.8909 55.8532 21.816C55.907 21.738 55.9705 21.6668 56.0437 21.6024L56.3708 21.1596C56.4514 21.0427 56.5515 20.9393 56.6711 20.8493L56.8818 20.6064C56.8996 20.5181 56.9384 20.4514 56.9982 20.4064C57.055 20.345 57.1132 20.2918 57.173 20.2468C57.2762 20.1598 57.3696 20.0661 57.4532 19.9657C57.5338 19.8488 57.6093 19.7499 57.6795 19.669L58.13 19.2035C58.1434 19.184 58.1501 19.1743 58.1501 19.1743C58.1531 19.1907 58.1644 19.2057 58.1839 19.2191L58.2423 19.2594L58.3184 19.1179L58.3094 19.0685C58.3063 19.0521 58.31 19.0259 58.3205 18.9899C58.3174 18.9735 58.3077 18.9667 58.2912 18.9698C58.2882 18.9533 58.2852 18.9368 58.2822 18.9204C58.2792 18.9039 58.2859 18.8942 58.3023 18.8912C58.3218 18.9046 58.3398 18.9098 58.3562 18.9068C58.3892 18.9008 58.4138 18.8962 58.4303 18.8932C58.4437 18.8737 58.4587 18.8625 58.4751 18.8595C58.4856 18.8235 58.5423 18.7621 58.6455 18.6751C58.6948 18.666 58.7247 18.6435 58.7352 18.6076C58.7426 18.5552 58.7597 18.5095 58.7866 18.4706L58.836 18.4615L58.973 18.5129L58.9458 18.3648C58.9727 18.3258 59.0108 18.3018 59.0602 18.2927C59.1065 18.2672 59.1432 18.235 59.17 18.196L59.5107 17.8273C59.5271 17.8243 59.5421 17.813 59.5555 17.7935C59.569 17.7741 59.5742 17.7561 59.5712 17.7396C59.5591 17.6738 59.568 17.6296 59.5979 17.6071C59.6442 17.5816 59.6891 17.5479 59.7324 17.5059C59.8624 17.38 60.0007 17.2525 60.1471 17.1236C60.3101 16.9916 60.4453 16.8477 60.5528 16.6918L60.6762 16.6692L60.6697 16.7725L60.5643 16.8939C60.5838 16.9073 60.5951 16.9223 60.5981 16.9387L60.6767 16.9498C60.7274 16.8554 60.7991 16.7827 60.8919 16.7317C60.9846 16.6807 61.0675 16.6229 61.1408 16.5584C61.217 16.5104 61.2753 16.4572 61.3156 16.3987C61.3559 16.3403 61.4142 16.2871 61.4905 16.2391C61.6235 16.1296 61.7513 16.0381 61.8739 15.9645L62.1093 15.7172L62.1047 15.6925C62.0987 15.6596 62.1009 15.6252 62.1113 15.5892C62.0814 15.6117 62.05 15.626 62.0171 15.632C62.0006 15.6351 62.0126 15.6074 62.0529 15.5489C62.1664 15.426 62.2845 15.3278 62.4071 15.2542C62.5297 15.1807 62.6493 15.0907 62.7659 14.9843C62.7823 14.9812 62.8003 14.9864 62.8198 14.9999C62.8362 14.9969 62.8527 14.9938 62.8692 14.9908C62.9679 14.9727 63.0442 14.9247 63.0979 14.8468C63.1487 14.7524 63.2121 14.6812 63.2884 14.6332C63.3213 14.6271 63.3445 14.6144 63.3579 14.5949C63.3878 14.5724 63.411 14.5596 63.4275 14.5566L63.5015 14.543C63.5838 14.5279 63.6466 14.4994 63.69 14.4574C63.7333 14.4154 63.7931 14.3704 63.8694 14.3224C63.9292 14.2774 63.9837 14.2504 64.0331 14.2413C64.0959 14.2128 64.1408 14.179 64.1677 14.1401C64.2963 14.0995 64.4085 14.0619 64.5042 14.0273C64.6134 13.9732 64.7143 13.9207 64.8071 13.8696L64.8317 13.8651L64.9058 13.8515C64.9223 13.8485 64.929 13.8388 64.926 13.8223C64.9065 13.8089 64.8937 13.7857 64.8877 13.7528C64.8817 13.7198 64.8951 13.7004 64.928 13.6943C64.9774 13.6853 65.0036 13.689 65.0066 13.7054C65.0231 13.7024 65.0328 13.7091 65.0358 13.7256C65.0523 13.7226 65.0687 13.7195 65.0852 13.7165C65.1181 13.7105 65.1428 13.7059 65.1593 13.7029C65.1892 13.6804 65.2206 13.6662 65.2535 13.6601C65.2864 13.6541 65.3223 13.6645 65.3613 13.6914C65.3912 13.6689 65.4473 13.6501 65.5296 13.635C65.6119 13.6199 65.6762 13.5996 65.7226 13.574L65.7966 13.5605C65.846 13.5514 65.8662 13.5222 65.8571 13.4728L65.848 13.4234C65.8316 13.4264 65.8203 13.4115 65.8143 13.3786L65.8098 13.3539C65.8098 13.3539 65.836 13.3576 65.8884 13.365C65.9048 13.362 65.9228 13.3672 65.9423 13.3806C65.9587 13.3776 65.9752 13.3746 65.9916 13.3716C66.041 13.3625 66.0776 13.3303 66.1015 13.2748C66.1149 13.2554 66.1463 13.2411 66.1957 13.232L66.2698 13.2184C66.3611 13.2527 66.4674 13.2757 66.5887 13.2875C66.8013 13.3336 66.9459 13.4261 67.0224 13.5652L67.0517 13.5854C67.0547 13.6018 67.0315 13.6146 66.9821 13.6236C66.9626 13.6102 66.9589 13.6364 66.971 13.7022L66.9801 13.7516C67.0684 13.7694 67.1418 13.7985 67.2002 13.8388C67.2557 13.8627 67.3223 13.9015 67.4002 13.9552C67.4227 13.9851 67.434 14.0001 67.434 14.0001C67.4504 13.997 67.4541 13.9708 67.4451 13.9215C67.4421 13.905 67.457 13.8938 67.4899 13.8877C67.4929 13.9042 67.4945 13.9124 67.4945 13.9124C67.6698 14.0334 67.765 14.135 67.7801 14.2173L67.778 14.3452ZM58.7437 36.3165C58.8485 36.3313 58.9092 36.3372 58.9256 36.3342C58.9585 36.3282 58.9982 36.3124 59.0445 36.2869C59.0939 36.2778 59.1433 36.2687 59.1927 36.2597C59.2585 36.2476 59.3094 36.2468 59.3453 36.2572C59.4545 36.2031 59.5734 36.1558 59.7021 36.1152C59.8502 36.088 59.9901 36.0623 60.1218 36.0381L60.5168 35.9657C60.629 35.9281 60.7412 35.8905 60.8533 35.8529C60.9655 35.8153 61.0875 35.7844 61.2191 35.7602C61.3448 35.7031 61.4869 35.643 61.6454 35.5799C61.807 35.5333 61.9506 35.4814 62.0762 35.4243C62.1555 35.3928 62.228 35.3709 62.2939 35.3589C62.3627 35.3632 62.4106 35.3459 62.4375 35.307C62.4643 35.268 62.501 35.2358 62.5473 35.2103C62.5967 35.2012 62.6363 35.1854 62.6662 35.1629C62.8053 35.0864 62.9361 35.0113 63.0587 34.9378C63.1978 34.8612 63.3384 34.7929 63.4805 34.7328C63.633 34.6368 63.7855 34.5407 63.938 34.4447C64.0935 34.3651 64.267 34.2907 64.4585 34.2216C64.5243 34.2095 64.5661 34.1593 64.584 34.071C64.5628 33.9558 64.6181 33.8861 64.7498 33.8619L64.8238 33.8483C64.8403 33.8453 64.8784 33.8213 64.9382 33.7763C64.9725 33.6849 65.021 33.625 65.0838 33.5964L65.3978 33.3602C65.4307 33.3542 65.4523 33.3332 65.4628 33.2972C65.4732 33.2613 65.4836 33.2254 65.494 33.1894C65.5209 33.1505 65.5493 33.1197 65.5792 33.0972C65.6091 33.0747 65.6292 33.0455 65.6397 33.0096C65.8412 32.7174 66.0099 32.4313 66.1456 32.1512L66.188 31.9647C66.2149 31.9258 66.2268 31.8981 66.2238 31.8816C66.2177 31.8487 66.2282 31.8128 66.255 31.7738C66.3878 31.4772 66.4345 31.222 66.3952 31.008C66.3892 30.9751 66.3749 30.9437 66.3524 30.9138C66.3464 30.8809 66.3403 30.848 66.3343 30.815C66.2682 30.64 66.1901 30.4927 66.1001 30.3731C66.0235 30.2341 65.9268 30.1242 65.81 30.0436C65.7095 29.9599 65.6174 29.8748 65.5334 29.7881C65.4494 29.7014 65.3341 29.629 65.1873 29.5709C65.0735 29.5067 64.9529 29.4523 64.8256 29.4076C64.7117 29.3434 64.5844 29.2987 64.4437 29.2735C64.2969 29.2154 64.1337 29.1603 63.954 29.1082C63.7878 29.0366 63.6343 28.9882 63.4935 28.963C63.4217 28.9422 63.3595 28.928 63.3071 28.9206C63.2547 28.9133 63.2039 28.9141 63.1545 28.9231C63.138 28.9262 63.1231 28.9374 63.1096 28.9569C63.0932 28.9599 63.0767 28.9629 63.0603 28.966L62.7262 29.2314C62.6529 29.2959 62.6254 29.3775 62.6435 29.4763L62.648 29.5009C62.6511 29.5174 62.6458 29.5354 62.6324 29.5548C62.6324 29.5548 62.6339 29.5631 62.6369 29.5795C62.5607 29.6276 62.5009 29.6726 62.4576 29.7145C62.4142 29.7565 62.3627 29.8 62.3029 29.845C62.1863 29.9515 62.0779 30.0564 61.9778 30.1598C61.8942 30.2602 61.7926 30.3555 61.673 30.4455C61.5967 30.4935 61.5235 30.5579 61.4533 30.6389C61.3995 30.7168 61.336 30.788 61.2628 30.8525C61.209 30.9304 61.144 30.9934 61.0678 31.0414C60.9915 31.0894 60.9378 31.1673 60.9065 31.2751C60.9095 31.2916 60.9028 31.3013 60.8864 31.3043C60.8131 31.3688 60.7414 31.4415 60.6712 31.5225C60.601 31.6034 60.5277 31.6679 60.4515 31.7159C60.2153 31.9123 60.0002 32.1305 59.806 32.3702C59.6252 32.5906 59.4363 32.8124 59.2391 33.0357C59.139 33.1391 59.0419 33.259 58.9478 33.3954C58.8672 33.5123 58.7686 33.6239 58.652 33.7304C58.5788 33.7949 58.507 33.8676 58.4368 33.9485C58.38 34.01 58.3181 34.0894 58.2509 34.1868C58.1642 34.2707 58.1202 34.3554 58.1188 34.4407L58.1234 34.4654C58.1294 34.4983 58.119 34.5342 58.0921 34.5732C58.0622 34.5957 58.0338 34.6264 58.0069 34.6654C57.8934 34.7883 57.8075 34.9231 57.7494 35.0699C57.7047 35.1972 57.6256 35.3223 57.512 35.4452C57.4986 35.4647 57.4934 35.4827 57.4964 35.4991C57.4994 35.5156 57.5271 35.5275 57.5795 35.5349C57.5348 35.6622 57.4804 35.7828 57.4162 35.8966C57.4058 35.9326 57.4051 35.9752 57.4142 36.0246C57.4263 36.0904 57.4353 36.1398 57.4414 36.1727C57.4279 36.1922 57.4242 36.2184 57.4303 36.2513C57.4393 36.3007 57.488 36.3343 57.5764 36.3521L58.2701 36.3779C58.339 36.3823 58.4146 36.3769 58.4969 36.3618C58.5792 36.3467 58.6615 36.3316 58.7437 36.3165ZM57.9544 32.71L58.2345 32.4289C58.2614 32.39 58.2965 32.3495 58.3399 32.3075C58.3832 32.2655 58.4213 32.2415 58.4542 32.2355C58.5335 32.2039 58.5784 32.1702 58.5888 32.1343C58.6126 32.0788 58.638 32.0316 58.6649 31.9927C58.6619 31.9762 58.6521 31.9695 58.6357 31.9725C58.6357 31.9725 58.6341 31.9643 58.6311 31.9478L58.5818 31.9569L58.4472 32.0581L57.8355 32.7574C57.9013 32.7453 57.9409 32.7295 57.9544 32.71ZM59.3765 30.5861C59.3916 30.6684 59.3745 30.7141 59.3251 30.7232C59.2549 30.8041 59.1832 30.8768 59.1099 30.9413C59.0337 30.9893 58.9604 31.0538 58.8902 31.1347L58.7915 31.1528C58.775 31.1559 58.787 31.1281 58.8273 31.0697C58.8871 31.0247 58.9453 30.9715 59.0021 30.91C59.0589 30.8486 59.1254 30.7938 59.2017 30.7458C59.2091 30.6934 59.2509 30.6432 59.3271 30.5952C59.3406 30.5757 59.3555 30.5645 59.372 30.5614L59.3765 30.5861ZM57.7165 32.8047C57.6853 32.9125 57.6084 33.0032 57.4857 33.0767C57.4528 33.0828 57.4424 33.1187 57.4545 33.1845C57.4679 33.1651 57.4829 33.1538 57.4993 33.1508C57.5158 33.1478 57.5255 33.1545 57.5286 33.1709C57.545 33.1679 57.5697 33.1634 57.6026 33.1574C57.6429 33.0989 57.675 33.042 57.6989 32.9866C57.7392 32.9281 57.7683 32.8547 57.7861 32.7664C57.7532 32.7725 57.73 32.7852 57.7165 32.8047Z" fill="#5D35EE"/>
</svg>
